<?xml version="1.0" encoding="utf-8"?>
<!-- Generator: Adobe Illustrator 23.0.4, SVG Export Plug-In . SVG Version: 6.00 Build 0)  -->
<svg version="1.1" id="Layer_1" xmlns="http://www.w3.org/2000/svg" xmlns:xlink="http://www.w3.org/1999/xlink" x="0px" y="0px"
	 viewBox="0 0 416.1 316.9" style="enable-background:new 0 0 416.1 316.9;" xml:space="preserve">
<style type="text/css">
	.st0{fill:#FFFFFF;}
	.st1{fill:none;}
</style>
<g>
	<path class="st0" d="M220.9,169c-1.9,0-3.4,1.5-3.4,3.4c0,5.8-4.7,10.5-10.5,10.5s-10.5-4.7-10.5-10.5c0-1.9-1.5-3.4-3.4-3.4
		c-1.9,0-3.4,1.5-3.4,3.4c0,9.5,7.7,17.3,17.3,17.3c9.5,0,17.3-7.7,17.3-17.3C224.3,170.5,222.8,169,220.9,169z"/>
	<path class="st0" d="M296.4,110c0-5.7-2.2-10.8-5.8-14.7c1.7-3.1,2.7-6.6,2.7-10.3c0-11.2-8.6-20.4-19.6-21.3
		c-0.9-11-10.1-19.6-21.3-19.6c-0.9,0-1.8,0.1-2.6,0.2c-1.2-3-3-5.8-5.3-8c-3.2-3.1-7.6-5.3-12.6-5.3c-12.6,0-22.8,10.2-22.8,22.8
		v34c0,1.1-0.9,2.1-2.1,2.1c-1.1,0-2.1-0.9-2.1-2.1v-34c0-12.6-10.2-22.8-22.8-22.8c-4.9,0-9.3,2.1-12.6,5.3c-2.3,2.2-4.1,5-5.3,8
		c-0.9-0.1-1.7-0.2-2.6-0.2c-11.2,0-20.4,8.6-21.3,19.6c-11,0.9-19.6,10.1-19.6,21.3c0,3.7,1,7.3,2.7,10.3c-3.6,3.8-5.8,9-5.8,14.7
		c0,10.2,7.1,18.7,16.7,20.8c-2.5,4.4-3.9,9.8-3.9,16c0,16.8,11.3,29.2,27.1,30.5c1.6,12,10.2,21.3,25.1,27.2
		c11.9,4.7,23.6,5.6,24.1,5.6l0.3,0l0.3,0c0.5,0,12.2-0.9,24.1-5.6c14.9-5.9,23.4-15.3,25.1-27.2c15.9-1.3,27.1-13.7,27.1-30.5
		c0-6.2-1.3-11.6-3.9-16C289.3,128.7,296.4,120.1,296.4,110z M136.4,146.8c0-14.7,8.4-23,24.2-24c8.5-0.6,20.6-1.4,28.8,0.9
		c8,2.3,8,6.5,8,8.2c0,13.2-16,39.6-37,39.6C143.9,171.5,136.4,158.7,136.4,146.8z M228.6,197c-9.8,3.9-19.7,5-21.5,5.1
		c-3.5-0.3-37.5-3.9-41.3-25.2c18.1-3.1,31.6-21.6,36.2-36.3c0.7-2.4,0.8-4.1,5.2-4.1c4.4,0,4.4,1.6,5.2,4.1
		c4.5,14.7,18.1,33.2,36.2,36.3C246.9,185.6,240.2,192.3,228.6,197z M253.7,171.5c-21,0-37-26.4-37-39.6c0-1.7,0-5.9,8.1-8.2
		c8.2-2.3,20.3-1.5,28.8-0.9c15.8,1,24.2,9.3,24.2,24C277.7,158.7,270.2,171.5,253.7,171.5z M275.1,123.6h-1.5
		c-2.7-2.1-5.9-3.8-9.6-4.9c-3.4-8.2-11.5-15.1-21-15.1c-2.1,0-3.8,1.7-3.8,3.8c0,2.1,1.7,3.8,3.8,3.8v0c4.2,0,8,2.8,10.7,5.6
		c-6.1-0.4-26.4-0.6-46.6-0.6c-20.3,0-40.5,0.2-46.6,0.6c2.7-2.8,6.5-5.6,10.7-5.6c2.1,0,3.8-1.7,3.8-3.8c0-2.1-1.7-3.8-3.8-3.8
		c-9.5,0-17.6,6.8-21,15.1c-3.7,1.2-6.9,2.8-9.6,4.9H139c-7.5,0-13.7-6.1-13.7-13.7c0-4.1,1.8-7.7,4.6-10.2h23.3
		c12.6,0,22.8-10.2,22.8-22.8c0-2.1-1.7-3.8-3.8-3.8c-2.1,0-3.8,1.7-3.8,3.8c0,8.3-6.8,15.1-15.1,15.1h-22.6c-1.3-2.1-2-4.5-2-7.1
		c0-7.5,6.1-13.7,13.7-13.7c0.5,0,1.1,0,1.7,0.1c0.3,0,0.6,0,0.9,0l4.5,4.5c0.7,0.7,1.7,1.1,2.7,1.1c1,0,2-0.4,2.7-1.1
		c1.5-1.5,1.5-3.9,0-5.4l-6.6-6.6c0.8-6.8,6.5-12.2,13.6-12.2c1.4,0,2.8,0.2,4.1,0.6c1,0.3,2.2,0.2,3.1-0.4c0.9-0.6,1.6-1.5,1.8-2.6
		c0.6-2.9,2.1-5.8,4.2-7.7c2.1-2,4.6-3.1,7.3-3.1c8.3,0,15.1,6.8,15.1,15.1v14v7.8V75v8.4v4.4c0,0.1,0,0.3,0,0.4
		c0.2,5.2,4.5,9.3,9.7,9.3c5.2,0,9.5-4.1,9.7-9.3c0-0.1,0-0.3,0-0.4V74.4v7.9V61.7V54v-0.3c0-8.3,6.8-15.1,15.1-15.1
		c2.7,0,5.2,1.1,7.3,3.1c2.1,2,3.6,4.8,4.2,7.7c0.2,1.1,0.9,2,1.8,2.6c0.9,0.6,2.1,0.7,3.1,0.4c1.3-0.4,2.7-0.6,4.1-0.6
		c7,0,12.8,5.3,13.6,12.2l-6.7,6.7c-1.5,1.5-1.5,3.9,0,5.4c0.7,0.7,1.7,1.1,2.7,1.1s2-0.4,2.7-1.1l4.7-4.7c0.3,0,0.6,0,0.9,0
		c0.6-0.1,1.2-0.1,1.7-0.1c7.5,0,13.7,6.1,13.7,13.7c0,2.6-0.7,5.1-2,7.1l-22.6,0c-8.3,0-15.1-6.8-15.1-15.1c0-2.1-1.7-3.8-3.8-3.8
		c-2.1,0-3.8,1.7-3.8,3.8c0,12.6,10.2,22.8,22.8,22.8h23.3c2.8,2.5,4.6,6.1,4.6,10.2C288.8,117.5,282.7,123.6,275.1,123.6z"/>
</g>
<g>
	<path class="st1" d="M275.1,123.6h-1.5c-2.7-2.1-5.9-3.8-9.6-4.9c-3.4-8.2-11.5-15.1-21-15.1c-2.1,0-3.8,1.7-3.8,3.8
		c0,2.1,1.7,3.8,3.8,3.8v0c4.2,0,8,2.8,10.7,5.6c-6.1-0.4-26.4-0.6-46.6-0.6c-20.3,0-40.5,0.2-46.6,0.6c2.7-2.8,6.5-5.6,10.7-5.6
		c2.1,0,3.8-1.7,3.8-3.8c0-2.1-1.7-3.8-3.8-3.8c-9.5,0-17.6,6.8-21,15.1c-3.7,1.2-6.9,2.8-9.6,4.9H139c-7.5,0-13.7-6.1-13.7-13.7
		c0-4.1,1.8-7.7,4.6-10.2h23.3c12.6,0,22.8-10.2,22.8-22.8c0-2.1-1.7-3.8-3.8-3.8c-2.1,0-3.8,1.7-3.8,3.8c0,8.3-6.8,15.1-15.1,15.1
		h-22.6c-1.3-2.1-2-4.5-2-7.1c0-7.5,6.1-13.7,13.7-13.7c0.5,0,1.1,0,1.7,0.1c0.3,0,0.6,0,0.9,0l4.5,4.5c0.7,0.7,1.7,1.1,2.7,1.1
		c1,0,2-0.4,2.7-1.1c1.5-1.5,1.5-3.9,0-5.4l-6.6-6.6c0.8-6.8,6.5-12.2,13.6-12.2c1.4,0,2.8,0.2,4.1,0.6c1,0.3,2.2,0.2,3.1-0.4
		c0.9-0.6,1.6-1.5,1.8-2.6c0.6-2.9,2.1-5.8,4.2-7.7c2.1-2,4.6-3.1,7.3-3.1c8.3,0,15.1,6.8,15.1,15.1v14v7.8V75v8.4v4.4
		c0,0.1,0,0.3,0,0.4c0.2,5.2,4.5,9.3,9.7,9.3c5.2,0,9.5-4.1,9.7-9.3c0-0.1,0-0.3,0-0.4V74.4v7.9V61.7V54v-0.3
		c0-8.3,6.8-15.1,15.1-15.1c2.7,0,5.2,1.1,7.3,3.1c2.1,2,3.6,4.8,4.2,7.7c0.2,1.1,0.9,2,1.8,2.6c0.9,0.6,2.1,0.7,3.1,0.4
		c1.3-0.4,2.7-0.6,4.1-0.6c7,0,12.8,5.3,13.6,12.2l-6.7,6.7c-1.5,1.5-1.5,3.9,0,5.4c0.7,0.7,1.7,1.1,2.7,1.1s2-0.4,2.7-1.1l4.7-4.7
		c0.3,0,0.6,0,0.9,0c0.6-0.1,1.2-0.1,1.7-0.1c7.5,0,13.7,6.1,13.7,13.7c0,2.6-0.7,5.1-2,7.1l-22.6,0c-8.3,0-15.1-6.8-15.1-15.1
		c0-2.1-1.7-3.8-3.8-3.8c-2.1,0-3.8,1.7-3.8,3.8c0,12.6,10.2,22.8,22.8,22.8h23.3c2.8,2.5,4.6,6.1,4.6,10.2
		C288.8,117.5,282.7,123.6,275.1,123.6z"/>
</g>
<g>
	<path class="st0" d="M58.2,274.5c-3.2,0.5-6.9,1-13.1,1c-8.2,0-17-5.4-17-20.4v-8.8c0-16,9.2-20.5,17.6-20.5c6.1,0,10,0.5,12.5,0.9
		c0.6,0.1,1.1,0.3,1.1,1v3.3c0,0.5-0.3,0.7-0.9,0.7c-0.1,0-0.2,0-0.3,0c-3.9-0.3-6.9-0.5-12.5-0.5c-6.1,0-11.6,3.3-11.6,15.1v8.8
		c0,10.8,4.9,15.1,11,15.1c4,0,6.7-0.3,8.3-0.4V251c0-0.7,0.5-1.3,1.2-1.3h3.5c0.7,0,1.2,0.6,1.2,1.3v22.1
		C59.3,273.8,58.9,274.4,58.2,274.5z"/>
	<path class="st0" d="M95.5,258.8h-22v0.9c0,7.8,3.1,10.7,9.1,10.7c3.8,0,8.7-0.3,11.7-0.7c0.1,0,0.2,0,0.3,0c0.5,0,1.1,0.3,1.1,0.9
		v2.2c0,0.9-0.3,1.3-1.3,1.5c-3.7,0.7-7.4,1.1-11.8,1.1c-7.6,0-14.9-3.5-14.9-15.8v-5.9c0-9.4,5.2-15.4,14.6-15.4
		c9.6,0,14.5,6,14.5,15.4v3.5C96.8,258.2,96.3,258.8,95.5,258.8z M90.9,253.8c0-7.4-2.8-10.3-8.6-10.3c-5.7,0-8.8,3.2-8.8,10.3v0.6
		h17.4V253.8z"/>
	<path class="st0" d="M131,275h-3.2c-0.7,0-1.3-0.6-1.3-1.3v-21.6c0-6.6-2.2-8.7-7.2-8.7c-2.8,0-5.8,1.1-8.9,2.6v27.7
		c0,0.7-0.6,1.3-1.3,1.3h-3.2c-0.7,0-1.2-0.6-1.2-1.3v-33.5c0-0.7,0.5-1.3,1.2-1.3h3.3c0.7,0,1.2,0.6,1.2,1.3v1.2
		c3.6-2,6.6-3,10.4-3c7.9,0,11.4,4.9,11.4,13.7v21.6C132.4,274.4,131.8,275,131,275z"/>
	<path class="st0" d="M146.6,233.1h-3.4c-0.7,0-1.3-0.6-1.3-1.3v-5.3c0-0.7,0.6-1.3,1.3-1.3h3.4c0.7,0,1.3,0.6,1.3,1.3v5.3
		C147.9,232.5,147.3,233.1,146.6,233.1z M146.5,275h-3.2c-0.7,0-1.3-0.6-1.3-1.3v-33.5c0-0.7,0.6-1.3,1.3-1.3h3.2
		c0.7,0,1.3,0.6,1.3,1.3v33.5C147.8,274.4,147.2,275,146.5,275z"/>
	<path class="st0" d="M183.9,275h-3.3c-0.7,0-1.2-0.6-1.2-1.3v-1.2c-3.6,2-6.6,3-10.4,3c-7.9,0-11.4-4.9-11.4-13.7v-21.6
		c0-0.7,0.6-1.3,1.3-1.3h3.2c0.7,0,1.3,0.6,1.3,1.3v21.6c0,6.6,2.2,8.7,7.2,8.7c2.8,0,5.8-1.1,8.9-2.6v-27.7c0-0.7,0.6-1.3,1.3-1.3
		h3.2c0.7,0,1.2,0.6,1.2,1.3v33.5C185.2,274.4,184.7,275,183.9,275z"/>
	<path class="st0" d="M204.7,275.5c-2.4,0-7.2-0.2-10.4-1c-0.9-0.2-1.4-0.6-1.4-1.3v-2.3c0-0.6,0.5-1,1.2-1c0.1,0,0.2,0,0.3,0
		c3.2,0.4,8,0.7,10.3,0.7c4.3,0,6.5-1.1,6.5-4.7c0-2-1.2-3.2-4.9-5.5l-6.6-3.9c-4-2.4-6.7-5.3-6.7-9.4c0-6.8,5.1-8.7,11.9-8.7
		c3.7,0,7.2,0.3,10.3,0.9c0.9,0.1,1.2,0.6,1.2,1.3v2.2c0,0.8-0.5,1.1-1.1,1.1c-0.1,0-0.1,0-0.2,0c-2.3-0.2-6.5-0.5-10.2-0.5
		s-6.1,0.5-6.1,3.8c0,2,1.5,3.2,4.5,5l6.5,3.9c5.5,3.2,7.2,6,7.2,9.9C217,272.7,212.1,275.5,204.7,275.5z"/>
	<path class="st0" d="M254.2,274.5c-3.2,0.5-6.9,1-13.1,1c-8.2,0-17-5.4-17-20.4v-8.8c0-16,9.2-20.5,17.6-20.5
		c6.1,0,10,0.5,12.5,0.9c0.6,0.1,1.1,0.3,1.1,1v3.3c0,0.5-0.3,0.7-0.9,0.7c-0.1,0-0.2,0-0.3,0c-3.9-0.3-6.9-0.5-12.5-0.5
		c-6.1,0-11.6,3.3-11.6,15.1v8.8c0,10.8,4.9,15.1,11,15.1c4,0,6.7-0.3,8.3-0.4V251c0-0.7,0.5-1.3,1.2-1.3h3.5c0.7,0,1.2,0.6,1.2,1.3
		v22.1C255.4,273.8,254.9,274.4,254.2,274.5z"/>
	<path class="st0" d="M279.8,243.4c-3,0-5.8,0.8-9.1,2.8v27.5c0,0.7-0.6,1.3-1.3,1.3h-3.2c-0.7,0-1.2-0.6-1.2-1.3v-33.5
		c0-0.7,0.5-1.3,1.2-1.3h3.1c0.7,0,1.2,0.6,1.2,1.3v1.4c3.3-2.3,6.3-3.2,9.3-3.2c0.9,0,1.4,0.4,1.4,1.2v2.7
		C281.2,243,280.7,243.4,279.8,243.4z"/>
	<path class="st0" d="M299.2,275.5c-9.7,0-14.6-6.4-14.6-16v-5c0-9.7,4.9-16,14.6-16c9.7,0,14.7,6.4,14.7,16v5
		C313.9,269.1,308.9,275.5,299.2,275.5z M308.1,254.5c0-6.7-2.7-11-8.9-11c-6.1,0-8.8,4.2-8.8,11v5c0,6.7,2.6,11,8.8,11
		c6.1,0,8.9-4.2,8.9-11V254.5z"/>
	<path class="st0" d="M348,275h-3.3c-0.7,0-1.2-0.6-1.2-1.3v-1.2c-3.6,2-6.6,3-10.4,3c-7.9,0-11.4-4.9-11.4-13.7v-21.6
		c0-0.7,0.6-1.3,1.3-1.3h3.2c0.7,0,1.3,0.6,1.3,1.3v21.6c0,6.6,2.2,8.7,7.2,8.7c2.8,0,5.8-1.1,8.9-2.6v-27.7c0-0.7,0.6-1.3,1.3-1.3
		h3.2c0.7,0,1.2,0.6,1.2,1.3v33.5C349.3,274.4,348.8,275,348,275z"/>
	<path class="st0" d="M371.7,275.5c-2,0-5.1-0.3-7.7-0.7v11.9c0,0.7-0.5,1.2-1.2,1.2h-3.4c-0.7,0-1.2-0.5-1.2-1.2v-45.2
		c0-0.9,0.2-1.2,1.4-1.5c3.5-0.9,8.1-1.5,12.1-1.5c9.8,0,14.3,6.4,14.3,16.2v4.7C386,269.7,381.3,275.5,371.7,275.5z M380.2,254.7
		c0-6.9-2-11.4-8.5-11.4c-2.8,0-5.8,0.3-7.7,0.7v26c2.2,0.4,5.6,0.7,7.7,0.7c6.4,0,8.5-4.2,8.5-11.2V254.7z"/>
</g>
</svg>
