<svg id="Component_32_1" data-name="Component 32 – 1" xmlns="http://www.w3.org/2000/svg" width="178.121" height="39.009" viewBox="0 0 178.121 39.009">
  <g id="Group_653" data-name="Group 653" transform="translate(5887.578 2522.09)">
    <g id="Component_2_4" data-name="Component 2 – 4" transform="translate(-5887.578 -2522.09)">
      <g id="Group_4" data-name="Group 4">
        <path id="Path_13" data-name="Path 13" d="M578.087,1159.772a.737.737,0,0,0-.737.737,2.287,2.287,0,0,1-4.575,0,.737.737,0,1,0-1.473,0,3.761,3.761,0,1,0,7.522,0,.737.737,0,0,0-.737-.737" transform="translate(-555.604 -1129.717)" fill="#fff"/>
        <path id="Path_14" data-name="Path 14" d="M554.382,1070.063a4.634,4.634,0,0,1-.692-5.438,8.656,8.656,0,0,0-9.472-8.862,4.879,4.879,0,0,0-1.151-1.746,3.946,3.946,0,0,0-2.739-1.15,4.959,4.959,0,0,0-4.957,4.958v7.406a.447.447,0,1,1-.895,0v-7.406a4.959,4.959,0,0,0-4.957-4.958,3.945,3.945,0,0,0-2.739,1.15,4.887,4.887,0,0,0-1.151,1.746,10.36,10.36,0,0,0-6.529,18.831,6.924,6.924,0,0,0-.843,3.489,6.36,6.36,0,0,0,5.907,6.635c.357,2.6,2.226,4.64,5.462,5.928a19.493,19.493,0,0,0,5.237,1.225l.062,0,.062,0a19.491,19.491,0,0,0,5.236-1.225c3.236-1.288,5.1-3.325,5.462-5.928a6.36,6.36,0,0,0,5.907-6.635,6.927,6.927,0,0,0-.842-3.489,4.645,4.645,0,0,0,3.634-4.532m-34.844,8.021c0-3.2,1.824-5.011,5.275-5.235a20.847,20.847,0,0,1,6.265.2c1.752.5,1.752,1.417,1.752,1.791,0,2.876-3.484,8.623-8.059,8.623A5.092,5.092,0,0,1,519.538,1078.084Zm20.07,10.923a18.042,18.042,0,0,1-4.685,1.114c-.757-.068-8.17-.855-9-5.477,3.932-.679,6.889-4.705,7.871-7.9.163-.531.172-.882,1.127-.882s.964.351,1.128.882c.981,3.2,3.94,7.225,7.872,7.9C543.591,1086.524,542.144,1087.989,539.608,1089.007Zm5.467-5.544c-4.575,0-8.059-5.747-8.059-8.623,0-.374,0-1.292,1.753-1.791a20.851,20.851,0,0,1,6.265-.2c3.451.224,5.274,2.035,5.274,5.235A5.092,5.092,0,0,1,545.075,1083.462Zm4.662-10.424H549.4a6.441,6.441,0,0,0-2.094-1.078,5.173,5.173,0,0,0-4.571-3.277.835.835,0,0,0,0,1.67h0a3.514,3.514,0,0,1,2.336,1.215c-1.334-.082-5.744-.121-10.152-.121s-8.819.039-10.152.121a3.512,3.512,0,0,1,2.335-1.214.835.835,0,1,0,0-1.67,5.173,5.173,0,0,0-4.57,3.277,6.432,6.432,0,0,0-2.094,1.078h-.334a2.97,2.97,0,0,1-1.977-5.192H523.2a4.958,4.958,0,0,0,4.957-4.958.835.835,0,0,0-1.669,0,3.293,3.293,0,0,1-3.288,3.288h-4.93a2.946,2.946,0,0,1-.441-1.552,2.952,2.952,0,0,1,3.346-2.949.839.839,0,0,0,.2,0l.989.989a.835.835,0,0,0,1.181-1.181l-1.44-1.44a2.975,2.975,0,0,1,3.859-2.509.833.833,0,0,0,1.071-.632,3.267,3.267,0,0,1,.912-1.686,2.265,2.265,0,0,1,1.58-.682,3.293,3.293,0,0,1,3.288,3.288v7.406a.78.78,0,0,0,0,.086,2.113,2.113,0,0,0,4.224,0c0-.028,0-.057,0-.086v-7.406a3.293,3.293,0,0,1,3.288-3.288,2.265,2.265,0,0,1,1.58.682,3.265,3.265,0,0,1,.912,1.686.833.833,0,0,0,1.071.632,2.975,2.975,0,0,1,3.859,2.509l-1.467,1.467a.835.835,0,1,0,1.18,1.18l1.017-1.016a.822.822,0,0,0,.2,0,2.969,2.969,0,0,1,2.9,4.5h-4.93a3.293,3.293,0,0,1-3.288-3.288.835.835,0,0,0-1.67,0,4.958,4.958,0,0,0,4.958,4.958h5.065a2.971,2.971,0,0,1-1.977,5.192Z" transform="translate(-515.464 -1052.867)" fill="#fff"/>
      </g>
    </g>
  </g>
  <g id="GeniusATS" transform="translate(-205.271 -384.904)" style="isolation: isolate">
    <g id="Group_656" data-name="Group 656" style="isolation: isolate">
      <path id="Path_3656" data-name="Path 3656" d="M271.93,413l-.234-2.6a6.561,6.561,0,0,1-5.9,2.989c-4.627,0-8.944-3.38-8.944-9.62s4.576-9.594,9.127-9.594a8.2,8.2,0,0,1,8.164,5.564l-2.314.988a5.816,5.816,0,0,0-5.85-4.212c-3.3,0-6.527,2.366-6.527,7.254s3.12,7.307,6.423,7.307c4.108,0,5.59-2.912,5.694-4.811h-6.4v-2.288h8.815V413Z" fill="#fff"/>
      <path id="Path_3657" data-name="Path 3657" d="M288.544,409.438a5.667,5.667,0,0,1-5.616,3.952c-3.354,0-6.293-2.443-6.293-6.682,0-3.926,2.834-6.6,5.981-6.6,3.848,0,6.006,2.652,6.006,6.553a5.489,5.489,0,0,1-.052.779h-9.412a3.714,3.714,0,0,0,3.77,3.8,3.407,3.407,0,0,0,3.51-2.523Zm-2.47-3.978a3.152,3.152,0,0,0-3.432-3.2,3.364,3.364,0,0,0-3.407,3.2Z" fill="#fff"/>
      <path id="Path_3658" data-name="Path 3658" d="M294.185,413h-2.444V400.494h2.392v1.794a4.283,4.283,0,0,1,3.848-2.158c2.991,0,4.473,2.158,4.473,4.94V413H300.01v-7.514c0-1.741-.728-3.146-2.913-3.146-1.924,0-2.912,1.535-2.912,3.432Z" fill="#fff"/>
      <path id="Path_3659" data-name="Path 3659" d="M307.55,393.994a1.755,1.755,0,1,1-1.742,1.768A1.753,1.753,0,0,1,307.55,393.994ZM306.354,413V400.494h2.417V413Z" fill="#fff"/>
      <path id="Path_3660" data-name="Path 3660" d="M317.481,413.39c-2.912,0-4.68-2.183-4.68-5.017v-7.879h2.444v7.514c0,1.716.78,3.225,2.834,3.225,1.977,0,2.964-1.3,2.964-3.2v-7.541h2.444v10.192a21.039,21.039,0,0,0,.13,2.314h-2.34a11.233,11.233,0,0,1-.1-1.507A4.081,4.081,0,0,1,317.481,413.39Z" fill="#fff"/>
      <path id="Path_3661" data-name="Path 3661" d="M328.687,408.97a2.666,2.666,0,0,0,2.912,2.34c1.378,0,2.132-.779,2.132-1.664,0-.779-.572-1.378-1.612-1.611l-2.132-.469a3.557,3.557,0,0,1-3.12-3.51,4.262,4.262,0,0,1,4.445-3.952c3.433,0,4.5,2.236,4.759,3.354l-2.158.806a2.426,2.426,0,0,0-2.6-2.08,1.886,1.886,0,0,0-2.08,1.664c0,.754.469,1.3,1.431,1.508l2.028.442c2.262.494,3.458,1.872,3.458,3.718,0,1.769-1.482,3.874-4.576,3.874-3.432,0-4.888-2.21-5.1-3.64Z" fill="#fff"/>
      <path id="Path_3662" data-name="Path 3662" d="M350.423,407.852h-8.164L340.309,413h-2.73l7.332-18.434h2.938L355.182,413h-2.757Zm-7.254-2.366h6.344l-3.2-8.268Z" fill="#fff"/>
      <path id="Path_3663" data-name="Path 3663" d="M362.721,396.932V413h-2.548V396.932h-6.162v-2.366h14.873v2.366Z" fill="#fff"/>
      <path id="Path_3664" data-name="Path 3664" d="M380.947,399.558a3.74,3.74,0,0,0-3.9-3.146c-2.08,0-3.562,1.352-3.562,3.068a2.67,2.67,0,0,0,2.367,2.678l2.755.6c3.069.676,4.785,2.6,4.785,5.174,0,2.861-2.445,5.46-6.371,5.46-4.446,0-6.552-2.859-6.89-5.485l2.444-.78a4.189,4.189,0,0,0,4.42,3.952c2.548,0,3.8-1.327,3.8-2.939,0-1.326-.91-2.47-2.756-2.86l-2.626-.571c-2.626-.573-4.5-2.289-4.5-5.045,0-2.886,2.678-5.486,6.084-5.486,4.16,0,5.824,2.574,6.24,4.576Z" fill="#fff"/>
    </g>
  </g>
</svg>
