<?xml version="1.0" encoding="utf-8"?>
<!-- Generator: Adobe Illustrator 25.0.0, SVG Export Plug-In . SVG Version: 6.00 Build 0)  -->
<svg version="1.1" id="Layer_1" xmlns="http://www.w3.org/2000/svg" xmlns:xlink="http://www.w3.org/1999/xlink" x="0px" y="0px"
	 viewBox="0 0 287.5 94.4" style="enable-background:new 0 0 287.5 94.4;" xml:space="preserve">
<style type="text/css">
	.st0{fill:#FFFFFF;}
</style>
<g>
	<path d="M287.2,81.5c0,7-5.7,12.7-12.7,12.7H13.1c-7,0-12.7-5.7-12.7-12.7V13c0-7,5.7-12.7,12.7-12.7h261.4c7,0,12.7,5.7,12.7,12.7
		V81.5z"/>
	<g>
		<path class="st0" d="M70.3,61.3c-1.4,3.1-2.1,4.5-3.9,7.3c-2.5,3.9-6.1,8.6-10.5,8.7c-3.9,0-4.9-2.6-10.3-2.5
			c-5.3,0-6.4,2.6-10.4,2.5c-4.4,0-7.8-4.4-10.3-8.2c-7.1-10.8-7.8-23.4-3.5-30.1c3.1-4.8,8-7.6,12.6-7.6c4.7,0,7.6,2.6,11.5,2.6
			c3.8,0,6-2.6,11.5-2.6c4.1,0,8.4,2.2,11.5,6.1C58.4,43,60.1,57.4,70.3,61.3z"/>
		<g>
			<path class="st0" d="M52.9,27c2-2.5,3.5-6.1,2.9-9.7c-3.2,0.2-7,2.3-9.2,4.9c-2,2.4-3.6,6-3,9.5C47.2,31.8,50.8,29.7,52.9,27z"/>
		</g>
	</g>
	<g>
		<g>
			<path class="st0" d="M103.5,38.7l-10.2,30H98l3-9.2h9.9l3.1,9.2h4.8l-10.2-30H103.5z M105.9,43.6c0.3,1.3,0.7,2.7,1.2,4.2
				l2.7,7.9h-7.8l2.7-8C105.2,46.5,105.6,45.1,105.9,43.6z"/>
			<path class="st0" d="M132,46.5c-3.1,0-5.6,1.2-7.2,3.5l-0.2-3h-4.1l0,0.4c0.1,1.9,0.2,3.9,0.2,6.8v23.1h4.5V66.5
				c1.4,1.7,3.7,2.7,6.2,2.7c2.6,0,5.1-1,6.9-2.9c2-2.1,3-5.1,3-8.7c0-3.2-0.9-5.9-2.6-8C137,47.6,134.6,46.5,132,46.5z M130.9,50.2
				c4,0,5.8,3.7,5.8,7.5c0,4.8-2.3,7.8-6,7.8c-2.5,0-4.7-1.7-5.3-4.2c-0.1-0.4-0.2-0.9-0.2-1.5v-3.6c0-0.3,0.1-0.7,0.1-1.1
				c0-0.1,0-0.2,0.1-0.4C126.1,52,128.3,50.2,130.9,50.2z"/>
			<path class="st0" d="M155.3,46.5c-3.1,0-5.6,1.2-7.2,3.5l-0.2-3h-4.1l0,0.4c0.1,1.9,0.2,3.9,0.2,6.8v23.1h4.5V66.5
				c1.4,1.7,3.7,2.7,6.2,2.7c2.6,0,5.1-1,6.9-2.9c2-2.1,3-5.1,3-8.7c0-3.2-0.9-5.9-2.6-8C160.3,47.6,157.9,46.5,155.3,46.5z
				 M154.2,50.2c4,0,5.8,3.7,5.8,7.5c0,4.8-2.3,7.8-6,7.8c-2.5,0-4.7-1.7-5.3-4.2c-0.1-0.4-0.2-0.9-0.2-1.5v-3.6
				c0-0.3,0.1-0.7,0.1-1.1c0-0.1,0-0.2,0.1-0.4C149.4,52,151.7,50.2,154.2,50.2z"/>
			<path class="st0" d="M184.6,51.4c-4.2-1.6-5.6-2.9-5.6-5.3c0-2,1.6-4,5.2-4c2.9,0,4.8,1,5.3,1.3l0.4,0.2l1.3-3.8l-0.3-0.1
				c-0.8-0.4-2.9-1.5-6.6-1.5c-5.8,0-9.8,3.4-9.8,8.3c0,3.9,2.5,6.7,8,8.7c3.8,1.4,5.3,2.9,5.3,5.4c0,2.9-2.2,4.6-5.8,4.6
				c-2.3,0-4.7-0.7-6.5-1.9l-0.4-0.3l-1.2,3.9l0.2,0.1c1.7,1.1,4.9,2,7.7,2c7.8,0,10.6-4.8,10.6-8.8C192.2,56.1,190,53.5,184.6,51.4
				z"/>
			<path class="st0" d="M200.4,41.8l-4.4,1.4v3.8h-3.3v3.6h3.3v11.1c0,2.7,0.5,4.6,1.6,5.8c1,1.1,2.6,1.7,4.4,1.7
				c1.7,0,2.9-0.3,3.5-0.5l0.3-0.1l-0.2-3.6L205,65c-0.6,0.2-1.2,0.2-2.1,0.2c-1.8,0-2.5-1.1-2.5-3.7v-11h5.5v-3.6h-5.5V41.8z"/>
			<path class="st0" d="M217.1,46.5c-6.3,0-10.8,4.7-10.8,11.5c0,6.6,4.3,11.2,10.4,11.2h0c5.2,0,10.8-3.6,10.8-11.6
				c0-3.2-1-6-2.9-8C222.8,47.5,220.1,46.5,217.1,46.5z M217,50c4.1,0,5.9,4,5.9,7.7c0,4.5-2.5,7.8-6,7.8h0c-3.4,0-5.9-3.2-5.9-7.7
				C210.9,54,212.8,50,217,50z"/>
			<path class="st0" d="M241.4,46.7l-0.3-0.1c-0.4-0.1-0.7-0.1-1.1-0.1c-2.4,0-4.5,1.4-5.7,3.6l-0.1-3.2h-4.1l0,0.4
				c0.1,1.8,0.2,3.8,0.2,6.5l0,14.8h4.5V57.1c0-0.6,0-1.2,0.1-1.8c0.5-2.8,2.4-4.6,4.8-4.6c0.5,0,0.8,0,1.2,0.1l0.5,0.1V46.7z"/>
			<path class="st0" d="M251.6,46.4c-6,0-10.2,4.8-10.2,11.7c0,6.6,4.2,10.9,10.7,10.9c3.4,0,5.8-0.7,7.2-1.4l0.3-0.1l-0.9-3.4
				l-0.4,0.2c-1.2,0.5-2.9,1-5.7,1c-2,0-6.5-0.6-6.8-6.6l14.6,0l0.1-0.3c0.1-0.5,0.1-1.1,0.1-1.9C260.6,51.9,258.3,46.4,251.6,46.4z
				 M251.3,49.9c1.4,0,2.5,0.4,3.3,1.3c1.3,1.3,1.5,3.3,1.6,4.2h-10.3C246.3,52.7,247.9,49.9,251.3,49.9z"/>
		</g>
		<g>
			<path class="st0" d="M93.4,18.2c1.3-0.2,2.7-0.3,4.3-0.3c2.9,0,5,0.6,6.4,1.7c1.4,1.2,2.2,2.8,2.2,5.1c0,2.3-0.8,4.2-2.3,5.5
				c-1.5,1.3-3.9,2-7,2c-1.5,0-2.7,0-3.7-0.2V18.2z M95.4,30.8c0.5,0.1,1.3,0.1,2.1,0.1c4.3,0,6.7-2.2,6.7-6c0-3.4-2.1-5.5-6.4-5.5
				c-1.1,0-1.8,0.1-2.4,0.2V30.8z"/>
			<path class="st0" d="M113.6,32.5c-3,0-5.4-2-5.4-5.2c0-3.4,2.5-5.4,5.6-5.4c3.3,0,5.4,2.1,5.4,5.2
				C119.3,30.8,116.3,32.5,113.6,32.5L113.6,32.5z M113.7,31.1c2,0,3.4-1.7,3.4-4c0-1.7-1-3.9-3.4-3.9c-2.4,0-3.5,2-3.5,4
				C110.3,29.4,111.7,31.1,113.7,31.1L113.7,31.1z"/>
			<path class="st0" d="M122.5,22l1.5,5.2c0.3,1.1,0.6,2.2,0.8,3.3h0.1c0.3-1,0.6-2.1,1-3.2l1.8-5.2h1.7l1.8,5.1
				c0.4,1.2,0.7,2.3,1,3.3h0.1c0.2-1,0.5-2.1,0.9-3.3l1.6-5.1h2l-3.6,10.2h-1.9l-1.7-4.9c-0.4-1.2-0.7-2.2-1-3.4h0
				c-0.3,1.2-0.6,2.3-1,3.4l-1.8,4.8h-1.9L120.4,22H122.5z"/>
			<path class="st0" d="M138.9,24.8c0-1.1,0-1.9-0.1-2.8h1.8l0.1,1.7h0c0.6-0.9,1.9-1.9,3.7-1.9c1.6,0,4,0.8,4,4.3v6.1h-2.1v-5.9
				c0-1.6-0.7-3-2.6-3c-1.3,0-2.4,0.9-2.8,1.9c-0.1,0.2-0.1,0.6-0.1,0.9v6.1h-2.1V24.8z"/>
			<path class="st0" d="M151.9,17.3h2.1v14.9h-2.1V17.3z"/>
			<path class="st0" d="M161.9,32.5c-3,0-5.4-2-5.4-5.2c0-3.4,2.5-5.4,5.6-5.4c3.2,0,5.4,2.1,5.4,5.2
				C167.6,30.8,164.7,32.5,161.9,32.5L161.9,32.5z M162,31.1c2,0,3.4-1.7,3.4-4c0-1.7-1-3.9-3.4-3.9c-2.4,0-3.5,2-3.5,4
				C158.6,29.4,160,31.1,162,31.1L162,31.1z"/>
			<path class="st0" d="M178.1,29.8c0,0.9,0,1.7,0.2,2.4h-1.8l-0.2-1.3h-0.1c-0.6,0.8-1.8,1.5-3.5,1.5c-2.3,0-3.5-1.5-3.5-2.9
				c0-2.5,2.4-3.8,6.8-3.8v-0.2c0-0.8-0.3-2.4-2.6-2.4c-1.1,0-2.2,0.3-3,0.8l-0.5-1.2c0.9-0.5,2.3-0.9,3.7-0.9
				c3.5,0,4.3,2.1,4.3,4.2V29.8z M176.1,27c-2.2,0-4.8,0.3-4.8,2.3c0,1.2,0.9,1.8,1.9,1.8c1.5,0,2.5-0.8,2.8-1.7
				c0.1-0.2,0.1-0.4,0.1-0.6V27z"/>
			<path class="st0" d="M191.2,17.3v12.3c0,0.9,0,1.9,0.1,2.6h-1.8l-0.1-1.8h0c-0.6,1.1-2,2-3.8,2c-2.7,0-4.9-2.1-4.9-5.2
				c0-3.4,2.3-5.5,5.1-5.5c1.8,0,2.9,0.7,3.4,1.5h0v-6.1H191.2z M189.2,26.2c0-0.3,0-0.5-0.1-0.8c-0.3-1.2-1.4-2.1-3-2.1
				c-2.1,0-3.4,1.7-3.4,3.9c0,2.1,1.1,3.8,3.3,3.8c1.4,0,2.6-0.8,3-2.2c0.1-0.3,0.1-0.5,0.1-0.8V26.2z"/>
			<path class="st0" d="M204.2,32.5c-3,0-5.4-2-5.4-5.2c0-3.4,2.5-5.4,5.6-5.4c3.3,0,5.4,2.1,5.4,5.2
				C209.8,30.8,206.9,32.5,204.2,32.5L204.2,32.5z M204.3,31.1c2,0,3.4-1.7,3.4-4c0-1.7-1-3.9-3.4-3.9c-2.4,0-3.5,2-3.5,4
				C200.8,29.4,202.2,31.1,204.3,31.1L204.3,31.1z"/>
			<path class="st0" d="M212.4,24.8c0-1.1,0-1.9-0.1-2.8h1.8l0.1,1.7h0c0.6-0.9,1.9-1.9,3.7-1.9c1.6,0,4,0.8,4,4.3v6.1H220v-5.9
				c0-1.6-0.7-3-2.6-3c-1.3,0-2.4,0.9-2.8,1.9c-0.1,0.2-0.1,0.6-0.1,0.9v6.1h-2.1V24.8z"/>
			<path class="st0" d="M232.8,19.6V22h2.9v1.4h-2.9v5.5c0,1.3,0.4,2,1.5,2c0.6,0,0.9,0,1.2-0.1l0.1,1.4c-0.4,0.1-1,0.3-1.8,0.3
				c-1,0-1.7-0.3-2.2-0.8c-0.6-0.6-0.8-1.5-0.8-2.7v-5.6h-1.8V22h1.8v-1.9L232.8,19.6z"/>
			<path class="st0" d="M238.1,17.3h2.1v6.4h0c0.3-0.5,0.8-1,1.5-1.3c0.6-0.3,1.3-0.5,2.1-0.5c1.5,0,3.9,0.8,3.9,4.4v6.1h-2.1v-5.8
				c0-1.7-0.7-3-2.6-3c-1.3,0-2.4,0.8-2.8,1.9c-0.1,0.3-0.1,0.5-0.1,0.9v6.1h-2.1V17.3z"/>
			<path class="st0" d="M252.2,27.5c0,2.5,1.8,3.5,3.9,3.5c1.5,0,2.4-0.2,3.1-0.5l0.4,1.3c-0.7,0.3-2,0.7-3.8,0.7
				c-3.5,0-5.6-2.1-5.6-5.1c0-3.1,2-5.5,5.3-5.5c3.7,0,4.7,2.9,4.7,4.8c0,0.4,0,0.7-0.1,0.9L252.2,27.5z M258.2,26.1
				c0-1.2-0.5-3-2.8-3c-2.1,0-3,1.7-3.2,3H258.2z"/>
		</g>
	</g>
</g>
</svg>
