<?xml version="1.0" encoding="utf-8"?>
<!-- Generator: Adobe Illustrator 25.0.0, SVG Export Plug-In . SVG Version: 6.00 Build 0)  -->
<svg version="1.1" id="Layer_1" xmlns="http://www.w3.org/2000/svg" xmlns:xlink="http://www.w3.org/1999/xlink" x="0px" y="0px"
	 viewBox="0 0 287.4 94.7" style="enable-background:new 0 0 287.4 94.7;" xml:space="preserve">
<style type="text/css">
	.st0{clip-path:url(#SVGID_2_);fill:url(#SVGID_3_);}
	.st1{clip-path:url(#SVGID_2_);fill:url(#SVGID_4_);}
	.st2{clip-path:url(#SVGID_2_);fill:url(#SVGID_5_);}
	.st3{clip-path:url(#SVGID_2_);fill:url(#SVGID_6_);}
	.st4{fill:#F9F9F9;}
	.st5{fill:#FCFCFD;}
</style>
<g>
	<path d="M287.2,81.6c0,7-5.7,12.7-12.7,12.7H13.1c-7,0-12.7-5.7-12.7-12.7V13.1c0-7,5.7-12.7,12.7-12.7h261.4
		c7,0,12.7,5.7,12.7,12.7V81.6z"/>
	<g id="PLAY_2_">
		<defs>
			<path id="SVGID_1_" d="M62.6,41.7l-12.9-7.5c0,0-23.6-13.6-24.9-14.4c-1.4-0.8-2.8-0.3-2.8,1.4c0,2.8,0,29,0,29s0,28.4,0,29.6
				c0,1.3,1,1.8,2.2,1.1c1.2-0.7,25.5-14.7,25.5-14.7l12.9-7.5c0,0,11-6.3,12.4-7.2c1.5-0.8,1.3-2,0.1-2.7
				C73.9,48.3,62.6,41.7,62.6,41.7z"/>
		</defs>
		<clipPath id="SVGID_2_">
			<use xlink:href="#SVGID_1_"  style="overflow:visible;"/>
		</clipPath>
		<linearGradient id="SVGID_3_" gradientUnits="userSpaceOnUse" x1="37.9651" y1="18.4992" x2="37.9651" y2="82.0215">
			<stop  offset="0" style="stop-color:#2079B0"/>
			<stop  offset="0.2863" style="stop-color:#4A93B8"/>
			<stop  offset="0.767" style="stop-color:#83BEBF"/>
			<stop  offset="1" style="stop-color:#97CFBF"/>
		</linearGradient>
		<polygon class="st0" points="21.9,18.5 21.9,50.3 21.9,82 54,50.3 		"/>
		<linearGradient id="SVGID_4_" gradientUnits="userSpaceOnUse" x1="21.9493" y1="34.2645" x2="62.5844" y2="34.2645">
			<stop  offset="0" style="stop-color:#5ABCAB"/>
			<stop  offset="1" style="stop-color:#E6E99A"/>
		</linearGradient>
		<polygon class="st1" points="62.6,41.7 49.7,34.3 21.9,18.3 21.9,18.5 54,50.3 		"/>
		<linearGradient id="SVGID_5_" gradientUnits="userSpaceOnUse" x1="42.2665" y1="50.2609" x2="42.2665" y2="82.2525">
			<stop  offset="0" style="stop-color:#E53432"/>
			<stop  offset="0.1668" style="stop-color:#D73948"/>
			<stop  offset="0.5748" style="stop-color:#B33F72"/>
			<stop  offset="0.8619" style="stop-color:#9A4189"/>
			<stop  offset="1" style="stop-color:#904192"/>
		</linearGradient>
		<polygon class="st2" points="21.9,82 21.9,82.3 49.7,66.3 62.6,58.8 54,50.3 		"/>
		<linearGradient id="SVGID_6_" gradientUnits="userSpaceOnUse" x1="65.6707" y1="41.7297" x2="65.6707" y2="58.7909">
			<stop  offset="0" style="stop-color:#F18779"/>
			<stop  offset="0.1194" style="stop-color:#F2917A"/>
			<stop  offset="0.7128" style="stop-color:#FABC77"/>
			<stop  offset="1" style="stop-color:#FDCB72"/>
		</linearGradient>
		<polygon class="st3" points="62.6,41.7 54,50.3 62.6,58.8 77.4,50.3 		"/>
	</g>
	<g>
		<path class="st4" d="M223.6,62.7c-1.2,0-2.3-0.2-3.3-0.7c-1-0.4-1.8-1.1-2.5-2h-0.2c0.1,1.1,0.2,2.1,0.2,3.1v7.6H215V43.9h2.3
			l0.4,2.5h0.1c0.7-1,1.6-1.7,2.5-2.2c1-0.4,2.1-0.7,3.3-0.7c2.5,0,4.3,0.8,5.7,2.5c1.3,1.7,2,4,2,7c0,3-0.7,5.4-2,7.1
			C227.9,61.8,226,62.7,223.6,62.7z M223.2,45.9c-1.9,0-3.3,0.5-4.1,1.6c-0.8,1-1.3,2.7-1.3,5v0.6c0,2.6,0.4,4.5,1.3,5.6
			c0.9,1.1,2.3,1.7,4.2,1.7c1.6,0,2.8-0.6,3.8-1.9c0.9-1.3,1.4-3.1,1.4-5.3c0-2.3-0.5-4.1-1.4-5.3C226.1,46.5,224.8,45.9,223.2,45.9
			z"/>
		<path class="st4" d="M237.8,62.3H235V36.1h2.8V62.3z"/>
		<path class="st4" d="M253.8,62.3l-0.6-2.6h-0.1c-0.9,1.2-1.8,1.9-2.8,2.4c-0.9,0.4-2.1,0.6-3.4,0.6c-1.8,0-3.3-0.5-4.3-1.4
			c-1-0.9-1.6-2.3-1.6-4c0-3.7,3-5.7,8.9-5.9l3.1-0.1v-1.1c0-1.4-0.3-2.5-0.9-3.2c-0.6-0.7-1.6-1-3-1c-1.5,0-3.3,0.5-5.2,1.4
			l-0.9-2.1c0.9-0.5,1.9-0.9,3-1.2c1.1-0.3,2.2-0.4,3.3-0.4c2.2,0,3.8,0.5,4.9,1.5c1.1,1,1.6,2.5,1.6,4.7v12.6H253.8z M247.5,60.4
			c1.7,0,3.1-0.5,4.1-1.4c1-1,1.5-2.3,1.5-4v-1.7l-2.8,0.1c-2.2,0.1-3.8,0.4-4.8,1c-1,0.6-1.5,1.6-1.5,2.9c0,1,0.3,1.8,0.9,2.3
			C245.6,60.1,246.4,60.4,247.5,60.4z"/>
		<path class="st4" d="M257.5,43.9h3l4,10.5c0.9,2.4,1.4,4.1,1.7,5.2h0.1c0.1-0.6,0.5-1.6,0.9-2.9c0.5-1.4,2-5.7,4.6-12.8h3l-7.9,21
			c-0.8,2.1-1.7,3.6-2.8,4.4c-1.1,0.9-2.3,1.3-3.9,1.3c-0.9,0-1.7-0.1-2.5-0.3v-2.2c0.6,0.1,1.3,0.2,2.1,0.2c1.9,0,3.3-1.1,4.1-3.2
			l1-2.6L257.5,43.9z"/>
	</g>
	<g>
		<path class="st4" d="M171.8,45.6c0.9,0.7,2.7,2.3,2.7,5.2c0,2.9-1.6,4.2-3.2,5.5c-0.5,0.5-1.1,1-1.1,1.9c0,0.8,0.6,1.3,1,1.7
			l1.4,1.1c1.7,1.4,3.2,2.7,3.2,5.4c0,3.6-3.5,7.3-10.2,7.3c-5.6,0-8.3-2.7-8.3-5.5c0-1.4,0.7-3.4,3-4.7c2.4-1.5,5.6-1.7,7.4-1.8
			c-0.5-0.7-1.2-1.4-1.2-2.6c0-0.7,0.2-1,0.4-1.5c-0.4,0-0.9,0.1-1.2,0.1c-4.1,0-6.4-3.1-6.4-6.1c0-1.8,0.8-3.7,2.5-5.2
			c2.2-1.8,4.8-2.1,6.9-2.1h8l-2.5,1.4H171.8z M169,62.7c-0.3,0-0.5,0-0.9,0c-0.3,0-2.4,0.1-4.1,0.6c-0.8,0.3-3.3,1.2-3.3,4
			c0,2.7,2.7,4.7,6.8,4.7c3.7,0,5.7-1.8,5.7-4.2C173.2,65.9,172,64.8,169,62.7z M170.2,55.4c0.9-0.9,1-2.1,1-2.8
			c0-2.8-1.7-7.1-4.9-7.1c-1,0-2.1,0.5-2.7,1.3c-0.7,0.8-0.9,1.9-0.9,2.9c0,2.6,1.5,6.9,4.8,6.9C168.5,56.5,169.5,56,170.2,55.4z"/>
		<path class="st4" d="M147.5,62.1c-6.1,0-9.4-4.8-9.4-9.1c0-5.1,4.1-9.4,10-9.4c5.7,0,9.2,4.4,9.2,9.1
			C157.3,57.3,153.7,62.1,147.5,62.1z M152.3,59c0.9-1.2,1.2-2.8,1.2-4.3c0-3.4-1.6-9.9-6.4-9.9c-1.3,0-2.5,0.5-3.5,1.3
			c-1.5,1.3-1.8,3-1.8,4.7c0,3.8,1.9,10.1,6.6,10.1C149.8,61,151.4,60.2,152.3,59z"/>
		<path class="st4" d="M126.5,62.1c-6.1,0-9.4-4.8-9.4-9.1c0-5.1,4.1-9.4,10-9.4c5.7,0,9.2,4.4,9.2,9.1
			C136.3,57.3,132.8,62.1,126.5,62.1z M131.4,59c0.9-1.2,1.2-2.8,1.2-4.3c0-3.4-1.6-9.9-6.4-9.9c-1.3,0-2.5,0.5-3.5,1.3
			c-1.5,1.3-1.8,3-1.8,4.7c0,3.8,1.9,10.1,6.6,10.1C128.9,61,130.5,60.2,131.4,59z"/>
		<path class="st4" d="M114.2,61.5l-5.5,1.3c-2.3,0.3-4.3,0.7-6.4,0.7c-10.7,0-14.8-7.9-14.8-14c0-7.5,5.8-14.5,15.7-14.5
			c2.1,0,4.1,0.3,5.9,0.8c2.9,0.8,4.3,1.8,5.1,2.4l-3.2,3.1l-1.4,0.3l1-1.6c-1.3-1.3-3.7-3.6-8.3-3.6c-6.1,0-10.7,4.7-10.7,11.4
			c0,7.3,5.3,14.2,13.7,14.2c2.5,0,3.8-0.5,4.9-1v-6.2l-5.9,0.3l3.1-1.7h8.2l-1,1c-0.3,0.2-0.3,0.3-0.4,0.6c0,0.3-0.1,1.5-0.1,1.9
			V61.5z"/>
		<path class="st4" d="M184,60.4c-1.3-0.1-1.5-0.3-1.5-1.9v-0.4V36.6c0-0.1,0-0.2,0-0.3c0.2-1.4,0.5-1.6,1.7-2.3h-5.5l-2.9,1.4h3v0
			l0,0v22.7v1.3c0,0.8-0.2,0.9-1,2.1h6.9l1.4-0.9C185.4,60.5,184.7,60.5,184,60.4z"/>
		<path class="st4" d="M199.8,60.8c-0.4,0.2-0.8,0.5-1.3,0.7c-1.3,0.6-2.6,0.7-3.7,0.7c-1.2,0-3.2-0.1-5.1-1.5
			c-2.7-1.9-3.9-5.2-3.9-8.1c0-6,4.9-8.9,8.8-8.9c1.4,0,2.8,0.3,4,1.1c1.9,1.3,2.4,2.9,2.7,3.8l-9,3.7l-3,0.2c1,4.9,4.3,7.7,7.9,7.7
			c2,0,3.4-0.7,4.7-1.3L199.8,60.8z M196.2,49.3c0.7-0.3,1.1-0.5,1.1-1c0-1.5-1.7-3.3-3.8-3.3c-1.5,0-4.4,1.2-4.4,5.4
			c0,0.7,0.1,1.3,0.1,2L196.2,49.3z"/>
		<g>
			<path class="st4" d="M203.5,43.9v2.5h-0.3v-2.5h-0.8v-0.3h2v0.3H203.5z"/>
			<path class="st4" d="M207,46.5v-2.6h0l-0.8,2.6H206l-0.8-2.6h0v2.6h-0.3v-2.8h0.5l0.7,2.3h0l0.7-2.3h0.5v2.8H207z"/>
		</g>
	</g>
	<g>
		<path class="st5" d="M95.2,27.4h-1.9c0-0.3-0.2-1-0.5-2.3h-2.8c-0.4,1.2-0.6,2-0.6,2.3h-1.8c0-0.2,0.5-1.4,1.4-3.9
			c0.9-2.4,1.4-3.7,1.4-4h2.3c0,0.2,0.4,1.5,1.3,3.9C94.7,25.8,95.2,27.1,95.2,27.4z M92.4,24c-0.7-2.1-1-3.2-1-3.4h-0.1
			c0,0.2-0.4,1.3-1.1,3.4H92.4z"/>
		<path class="st5" d="M102.9,27.4h-1.5c0-0.2-0.6-1-1.7-2.6c-1.2-1.7-1.8-2.8-2-3.4h-0.1c0.1,0.9,0.2,1.7,0.2,2.4
			c0,1,0,2.2,0.1,3.6h-1.5c0.1-1.2,0.1-2.6,0.1-4.1c0-1.5,0-2.7-0.1-3.7h1.8c0,0.2,0.5,1.1,1.5,2.5c1.1,1.6,1.7,2.6,1.8,3.2h0.1
			c-0.1-0.9-0.1-1.7-0.1-2.4c0-1.1,0-2.2-0.1-3.3h1.5c-0.1,1-0.1,2.2-0.1,3.7C102.8,24.8,102.9,26.1,102.9,27.4z"/>
		<path class="st5" d="M111.7,23.2c0,1.1-0.4,2.1-1.1,3c-0.7,0.9-1.8,1.3-3.1,1.3c-0.6,0-1.4,0-2.5-0.1c0.1-1.2,0.1-2.6,0.1-4.1
			c0-1.5,0-2.7-0.1-3.7h1.1c0.2,0,0.4,0,0.8,0c0.3,0,0.6,0,0.7,0c1.4,0,2.5,0.4,3.2,1.1C111.3,21.3,111.7,22.2,111.7,23.2z
			 M110,23.4c0-0.8-0.2-1.4-0.7-1.9c-0.4-0.5-1.1-0.8-2.1-0.8c-0.2,0-0.4,0-0.7,0.1c0,0.8,0.1,1.6,0.1,2.5c0,1,0,1.9,0.1,2.9
			c0.3,0.1,0.5,0.1,0.8,0.1c0.9,0,1.5-0.3,1.9-0.8C109.8,24.9,110,24.2,110,23.4z"/>
		<path class="st5" d="M119.7,27.4h-1.8c-0.5-1.4-0.8-2.3-1.1-2.6c-0.2-0.3-0.7-0.5-1.2-0.5c-0.2,0-0.5,0-0.7,0c0,1,0,2.1,0.1,3.1
			h-1.7c0.1-1.2,0.1-2.6,0.1-4.1c0-1.5,0-2.7-0.1-3.7h1c0.1,0,0.4,0,0.8,0c0.4,0,0.7,0,1.1,0c1.8,0,2.8,0.6,2.8,1.9
			c0,1-0.5,1.7-1.6,2.1v0.1c0.4,0.1,0.8,0.4,1.1,0.9C118.8,25,119.2,26,119.7,27.4z M117.4,21.8c0-0.8-0.5-1.2-1.5-1.2
			c-0.4,0-0.7,0-1,0.1c0,0.6,0.1,1.4,0.1,2.4c0.2,0,0.4,0,0.6,0C116.8,23.1,117.4,22.7,117.4,21.8z"/>
		<path class="st5" d="M128.3,23.3c0,1.2-0.4,2.3-1.1,3.1c-0.8,0.8-1.7,1.2-2.8,1.2c-1.1,0-1.9-0.4-2.7-1.1
			c-0.7-0.7-1.1-1.7-1.1-2.8c0-1.2,0.4-2.3,1.1-3.1c0.8-0.8,1.7-1.2,2.8-1.2c1.1,0,1.9,0.4,2.7,1.1C128,21.2,128.3,22.1,128.3,23.3z
			 M126.7,23.5c0-0.8-0.2-1.5-0.6-2c-0.4-0.5-1-0.8-1.6-0.8c-0.6,0-1.1,0.3-1.5,0.8c-0.4,0.5-0.6,1.2-0.6,2c0,0.8,0.2,1.5,0.6,2
			c0.4,0.5,1,0.8,1.6,0.8c0.6,0,1.1-0.3,1.5-0.8C126.5,24.9,126.7,24.3,126.7,23.5z"/>
		<path class="st5" d="M131.7,27.4H130c0.1-1.2,0.1-2.6,0.1-4.1c0-1.5,0-2.7-0.1-3.7h1.7c-0.1,1-0.1,2.3-0.1,3.7
			C131.7,24.8,131.7,26.1,131.7,27.4z"/>
		<path class="st5" d="M140.5,23.2c0,1.1-0.4,2.1-1.1,3c-0.7,0.9-1.8,1.3-3.1,1.3c-0.6,0-1.4,0-2.5-0.1c0.1-1.2,0.1-2.6,0.1-4.1
			c0-1.5,0-2.7-0.1-3.7h1.1c0.2,0,0.4,0,0.8,0c0.3,0,0.6,0,0.7,0c1.4,0,2.5,0.4,3.2,1.1C140.1,21.3,140.5,22.2,140.5,23.2z
			 M138.8,23.4c0-0.8-0.2-1.4-0.7-1.9c-0.4-0.5-1.1-0.8-2.1-0.8c-0.2,0-0.4,0-0.7,0.1c0,0.8,0.1,1.6,0.1,2.5c0,1,0,1.9,0.1,2.9
			c0.3,0.1,0.5,0.1,0.8,0.1c0.9,0,1.5-0.3,1.9-0.8C138.6,24.9,138.8,24.2,138.8,23.4z"/>
		<path class="st5" d="M152.1,27.4h-1.9c0-0.3-0.2-1-0.5-2.3h-2.8c-0.4,1.2-0.6,2-0.6,2.3h-1.8c0-0.2,0.5-1.4,1.4-3.9
			c0.9-2.4,1.4-3.7,1.4-4h2.3c0,0.2,0.4,1.5,1.3,3.9C151.6,25.8,152.1,27.1,152.1,27.4z M149.3,24c-0.7-2.1-1-3.2-1-3.4h-0.1
			c0,0.2-0.4,1.3-1.1,3.4H149.3z"/>
		<path class="st5" d="M159.1,21.6c0,1-0.4,1.7-1.1,2.1c-0.7,0.5-1.6,0.7-2.6,0.7c-0.2,0-0.3,0-0.4,0c0,0.8,0,1.8,0.1,3h-1.7
			c0.1-1.2,0.1-2.5,0.1-4.1c0-1.4,0-2.7-0.1-3.7h1c0.1,0,0.4,0,0.9,0c0.4,0,0.8,0,1.1,0c0.8,0,1.4,0.2,1.9,0.5
			C158.8,20.3,159.1,20.9,159.1,21.6z M157.5,21.9c0-0.9-0.6-1.3-1.7-1.3c-0.3,0-0.6,0-0.9,0.1c0,0.8,0.1,1.6,0.1,2.6
			c0.1,0,0.2,0,0.3,0C156.8,23.3,157.5,22.8,157.5,21.9z"/>
		<path class="st5" d="M166.3,21.6c0,1-0.4,1.7-1.1,2.1c-0.7,0.5-1.6,0.7-2.6,0.7c-0.2,0-0.3,0-0.4,0c0,0.8,0,1.8,0.1,3h-1.7
			c0.1-1.2,0.1-2.5,0.1-4.1c0-1.4,0-2.7-0.1-3.7h1c0.1,0,0.4,0,0.9,0c0.4,0,0.8,0,1.1,0c0.8,0,1.4,0.2,1.9,0.5
			C166,20.3,166.3,20.9,166.3,21.6z M164.7,21.9c0-0.9-0.6-1.3-1.7-1.3c-0.3,0-0.6,0-0.9,0.1c0,0.8,0.1,1.6,0.1,2.6
			c0.1,0,0.2,0,0.3,0C164,23.3,164.7,22.8,164.7,21.9z"/>
		<path class="st5" d="M178.1,23.3c0,1.2-0.4,2.3-1.1,3.1c-0.8,0.8-1.7,1.2-2.8,1.2c-1.1,0-1.9-0.4-2.7-1.1
			c-0.7-0.7-1.1-1.7-1.1-2.8c0-1.2,0.4-2.3,1.1-3.1c0.8-0.8,1.7-1.2,2.8-1.2c1.1,0,1.9,0.4,2.7,1.1
			C177.8,21.2,178.1,22.1,178.1,23.3z M176.5,23.5c0-0.8-0.2-1.5-0.6-2c-0.4-0.5-1-0.8-1.6-0.8c-0.6,0-1.1,0.3-1.5,0.8
			c-0.4,0.5-0.6,1.2-0.6,2c0,0.8,0.2,1.5,0.6,2c0.4,0.5,1,0.8,1.6,0.8c0.6,0,1.1-0.3,1.5-0.8C176.2,24.9,176.5,24.3,176.5,23.5z"/>
		<path class="st5" d="M186.3,27.4h-1.5c0-0.2-0.6-1-1.7-2.6c-1.2-1.7-1.8-2.8-2-3.4h-0.1c0.1,0.9,0.2,1.7,0.2,2.4
			c0,1,0,2.2,0.1,3.6h-1.5c0.1-1.2,0.1-2.6,0.1-4.1c0-1.5,0-2.7-0.1-3.7h1.8c0,0.2,0.5,1.1,1.5,2.5c1.1,1.6,1.7,2.6,1.8,3.2h0.1
			c-0.1-0.9-0.1-1.7-0.1-2.4c0-1.1,0-2.2-0.1-3.3h1.5c-0.1,1-0.1,2.2-0.1,3.7C186.2,24.8,186.2,26.1,186.3,27.4z"/>
	</g>
</g>
</svg>
