<?xml version="1.0" encoding="utf-8"?>
<!-- Generator: Adobe Illustrator 25.0.0, SVG Export Plug-In . SVG Version: 6.00 Build 0)  -->
<svg version="1.1" id="Layer_1" xmlns="http://www.w3.org/2000/svg" xmlns:xlink="http://www.w3.org/1999/xlink" x="0px" y="0px"
	 viewBox="0 0 407.3 121.8" style="enable-background:new 0 0 407.3 121.8;" xml:space="preserve">
<style type="text/css">
	.st0{fill:#A6A8AB;}
	.st1{fill:#FFFFFF;}
	.st2{fill:#5BC8F3;}
	.st3{fill:url(#SVGID_1_);}
	.st4{fill:url(#SVGID_2_);}
	.st5{fill:url(#SVGID_3_);}
</style>
<g>
	<g>
		<path d="M389.9,118.9H17c-7.6,0-13.7-6.1-13.7-13.7V16.9C3.3,9.3,9.5,3.2,17,3.2h372.9c7.6,0,13.7,6.1,13.7,13.7v88.3
			C403.6,112.8,397.5,118.9,389.9,118.9z"/>
		<path class="st0" d="M389.9,120.4H17c-8.4,0-15.2-6.8-15.2-15.2V16.9C1.8,8.5,8.6,1.7,17,1.7h372.9c8.4,0,15.2,6.8,15.2,15.2v88.3
			C405.1,113.6,398.3,120.4,389.9,120.4z M17,4.7c-6.7,0-12.2,5.5-12.2,12.2v88.3c0,6.7,5.5,12.2,12.2,12.2h372.9
			c6.7,0,12.2-5.5,12.2-12.2V16.9c0-6.7-5.5-12.2-12.2-12.2H17z"/>
	</g>
	<g>
		<path class="st1" d="M205.3,66.6c-7,0-12.7,5.3-12.7,12.7c0,7.3,5.7,12.7,12.7,12.7c7,0,12.7-5.4,12.7-12.7
			C218,71.9,212.3,66.6,205.3,66.6z M205.3,87c-3.8,0-7.2-3.2-7.2-7.7c0-4.6,3.3-7.7,7.2-7.7c3.8,0,7.2,3.1,7.2,7.7
			C212.4,83.8,209.1,87,205.3,87z M177.5,66.6c-7,0-12.7,5.3-12.7,12.7c0,7.3,5.7,12.7,12.7,12.7c7,0,12.7-5.4,12.7-12.7
			C190.2,71.9,184.5,66.6,177.5,66.6z M177.5,87c-3.8,0-7.2-3.2-7.2-7.7c0-4.6,3.3-7.7,7.2-7.7c3.8,0,7.2,3.1,7.2,7.7
			C184.7,83.8,181.3,87,177.5,87z M144.5,70.5v5.4h12.9c-0.4,3-1.4,5.2-2.9,6.8c-1.9,1.9-4.8,3.9-9.9,3.9c-7.9,0-14.1-6.4-14.1-14.3
			S136.6,58,144.5,58c4.3,0,7.4,1.7,9.7,3.8L158,58c-3.2-3.1-7.5-5.4-13.5-5.4c-10.9,0-20,8.8-20,19.7c0,10.9,9.1,19.7,20,19.7
			c5.9,0,10.3-1.9,13.7-5.5c3.6-3.6,4.7-8.5,4.7-12.6c0-1.2-0.1-2.4-0.3-3.4H144.5z M279.5,74.7c-1.1-2.8-4.3-8.1-10.9-8.1
			c-6.5,0-12,5.1-12,12.7c0,7.1,5.4,12.7,12.6,12.7c5.8,0,9.2-3.6,10.6-5.6l-4.3-2.9c-1.4,2.1-3.4,3.5-6.2,3.5
			c-2.8,0-4.8-1.3-6.1-3.8l17-7L279.5,74.7z M262.2,78.9c-0.1-4.9,3.8-7.4,6.6-7.4c2.2,0,4.1,1.1,4.7,2.7L262.2,78.9z M248.5,91.2
			h5.6V53.9h-5.6V91.2z M239.3,69.4h-0.2c-1.2-1.5-3.6-2.8-6.7-2.8c-6.3,0-12.1,5.6-12.1,12.7c0,7.1,5.8,12.6,12.1,12.6
			c3,0,5.4-1.3,6.7-2.9h0.2v1.8c0,4.8-2.6,7.4-6.8,7.4c-3.4,0-5.5-2.4-6.4-4.5l-4.8,2c1.4,3.4,5.1,7.5,11.2,7.5
			c6.5,0,12.1-3.8,12.1-13.2V67.4h-5.3V69.4z M232.9,87c-3.8,0-7.1-3.2-7.1-7.6c0-4.5,3.2-7.7,7.1-7.7c3.8,0,6.8,3.3,6.8,7.7
			C239.7,83.7,236.7,87,232.9,87z M305.6,53.9h-13.3v37.3h5.6V77.1h7.8c6.2,0,12.2-4.5,12.2-11.6C317.8,58.4,311.8,53.9,305.6,53.9z
			 M305.8,71.9h-7.9V59.1h7.9c4.2,0,6.5,3.4,6.5,6.4C312.3,68.4,309.9,71.9,305.8,71.9z M340.1,66.5c-4,0-8.2,1.8-9.9,5.7l4.9,2.1
			c1.1-2.1,3-2.7,5.1-2.7c2.9,0,5.8,1.7,5.8,4.8v0.4c-1-0.6-3.2-1.4-5.8-1.4c-5.3,0-10.7,2.9-10.7,8.4c0,5,4.4,8.2,9.3,8.2
			c3.7,0,5.8-1.7,7.1-3.6h0.2v2.9h5.4V76.8C351.4,70.2,346.5,66.5,340.1,66.5z M339.5,86.9c-1.8,0-4.4-0.9-4.4-3.2
			c0-2.9,3.2-4,5.9-4c2.4,0,3.6,0.5,5.1,1.2C345.6,84.5,342.7,86.9,339.5,86.9z M371,67.3l-6.4,16.2h-0.2l-6.6-16.2h-6l9.9,22.6
			l-5.7,12.6h5.8l15.3-35.1H371z M320.9,91.2h5.6V53.9h-5.6V91.2z"/>
		<g>
			<path class="st2" d="M33.3,24.3c-0.9,0.9-1.4,2.3-1.4,4.2v65.9c0,1.8,0.5,3.3,1.4,4.2l0.2,0.2l36.9-36.9v-0.4v-0.4L33.5,24
				L33.3,24.3z"/>
			<linearGradient id="SVGID_1_" gradientUnits="userSpaceOnUse" x1="94.8371" y1="61.375" x2="22.7781" y2="61.375">
				<stop  offset="0" style="stop-color:#FFDF00"/>
				<stop  offset="0.4087" style="stop-color:#FBBC0E"/>
				<stop  offset="0.7754" style="stop-color:#F9A418"/>
				<stop  offset="1" style="stop-color:#F89B1C"/>
			</linearGradient>
			<path class="st3" d="M82.7,74.1L70.4,61.8v-0.4v-0.4l12.3-12.3l0.3,0.2l14.6,8.3c4.2,2.4,4.2,6.2,0,8.6L83,74L82.7,74.1z"/>
			<linearGradient id="SVGID_2_" gradientUnits="userSpaceOnUse" x1="76.1368" y1="68.2087" x2="8.3621" y2="135.9834">
				<stop  offset="0" style="stop-color:#EE4447"/>
				<stop  offset="1" style="stop-color:#C5166C"/>
			</linearGradient>
			<path class="st4" d="M83,74L70.4,61.4L33.3,98.5c1.4,1.5,3.6,1.6,6.2,0.2L83,74"/>
			<linearGradient id="SVGID_3_" gradientUnits="userSpaceOnUse" x1="8.0601" y1="-13.5377" x2="63.3964" y2="41.7986">
				<stop  offset="0" style="stop-color:#269E6F"/>
				<stop  offset="5.089003e-02" style="stop-color:#2BA06F"/>
				<stop  offset="0.4663" style="stop-color:#53B26B"/>
				<stop  offset="0.7971" style="stop-color:#6BBD69"/>
				<stop  offset="1" style="stop-color:#74C168"/>
			</linearGradient>
			<path class="st5" d="M83,48.8L39.5,24.1c-2.6-1.4-4.8-1.3-6.2,0.2l37.1,37.1L83,48.8z"/>
		</g>
	</g>
	<g>
		<path class="st1" d="M138.8,26.4c-1.1-1-2.6-1.6-4.2-1.6c-3.7,0-6.5,3-6.5,6.7c0,3.7,2.8,6.7,6.5,6.7c3.2,0,5.4-1.8,5.6-4.7h-5
			v-2.1h7.7c0,6.2-3.3,9.1-8.3,9.1c-5,0-8.9-4-8.9-9c0-5,3.9-9,8.9-9c2.3,0,4.4,0.9,5.9,2.3L138.8,26.4z"/>
		<path class="st1" d="M156.5,22.7v2.2h-8v5.6h7v2.2h-7V38h8.3v2.2h-10.6V22.7H156.5z"/>
		<path class="st1" d="M171.9,22.7v2.2h-5.3v15.3h-2.4V24.9h-5.3v-2.2H171.9z"/>
		<path class="st1" d="M183.2,22.7v17.5h-2.4V22.7H183.2z"/>
		<path class="st1" d="M199.3,22.7v2.2H194v15.3h-2.4V24.9h-5.3v-2.2H199.3z"/>
		<path class="st1" d="M216,22.5c5,0,8.9,4,8.9,9c0,5-3.9,9-8.9,9c-5,0-8.9-4-8.9-9C207.2,26.5,211.1,22.5,216,22.5z M216,38.2
			c3.7,0,6.5-3,6.5-6.7c0-3.7-2.8-6.7-6.5-6.7c-3.7,0-6.5,3-6.5,6.7C209.6,35.2,212.4,38.2,216,38.2z"/>
		<path class="st1" d="M239,40.2L231,27v13.2h-2.4V22.7h2.3l7.9,13.1V22.7h2.4v17.5H239z"/>
	</g>
</g>
</svg>
