<?xml version="1.0" encoding="utf-8"?>
<!-- Generator: Adobe Illustrator 25.0.0, SVG Export Plug-In . SVG Version: 6.00 Build 0)  -->
<svg version="1.1" id="Layer_1" xmlns="http://www.w3.org/2000/svg" xmlns:xlink="http://www.w3.org/1999/xlink" x="0px" y="0px"
	 viewBox="0 0 407.3 121.8" style="enable-background:new 0 0 407.3 121.8;" xml:space="preserve">
<style type="text/css">
	.st0{fill:#A6A8AB;}
	.st1{fill:#FFFFFF;}
</style>
<g>
	<g>
		<path d="M390.2,118.8H17.3c-7.6,0-13.7-6.1-13.7-13.7V16.8c0-7.6,6.1-13.7,13.7-13.7h372.9c7.6,0,13.7,6.1,13.7,13.7v88.3
			C403.9,112.7,397.8,118.8,390.2,118.8z"/>
		<path class="st0" d="M390.2,120.3H17.3c-8.4,0-15.2-6.8-15.2-15.2V16.8c0-8.4,6.8-15.2,15.2-15.2h372.9c8.4,0,15.2,6.8,15.2,15.2
			v88.3C405.4,113.5,398.6,120.3,390.2,120.3z M17.3,4.6C10.6,4.6,5.1,10,5.1,16.8v88.3c0,6.7,5.5,12.2,12.2,12.2h372.9
			c6.7,0,12.2-5.5,12.2-12.2V16.8c0-6.7-5.5-12.2-12.2-12.2H17.3z"/>
	</g>
</g>
<g id="XMLID_3_">
	<g id="XMLID_4_">
		<g id="XMLID_5_">
			<path id="XMLID_7_" class="st1" d="M87.3,59c-0.1-8.9,7.3-13.3,7.7-13.5c-4.2-6.1-10.7-6.9-13-7c-5.5-0.6-10.7,3.3-13.5,3.3
				c-2.8,0-7.1-3.2-11.7-3.1c-5.9,0.1-11.5,3.5-14.5,8.9c-6.3,10.9-1.6,26.9,4.4,35.7c3,4.3,6.5,9.1,11.1,8.9
				c4.5-0.2,6.2-2.9,11.6-2.9c5.4,0,7,2.9,11.7,2.8c4.8-0.1,7.9-4.3,10.8-8.7c3.5-4.9,4.9-9.8,4.9-10C96.7,73.3,87.4,69.8,87.3,59z"
				/>
			<path id="XMLID_6_" class="st1" d="M78.4,32.8c2.4-3,4.1-7.2,3.6-11.3c-3.5,0.2-7.9,2.4-10.4,5.4c-2.2,2.6-4.2,6.9-3.7,10.9
				C71.9,38,75.9,35.7,78.4,32.8z"/>
		</g>
	</g>
	<g>
		<path class="st1" d="M144.3,81.3h-15.4l-3.7,10.9h-6.5l14.6-40.3h6.8l14.6,40.3H148L144.3,81.3z M130.5,76.2h12.2l-6-17.7h-0.2
			L130.5,76.2z"/>
		<path class="st1" d="M186,77.5c0,9.1-4.9,15-12.3,15c-4.2,0-7.5-1.9-9.3-5.1h-0.1v14.6h-6V62.8h5.8v4.9h0.1
			c1.7-3.2,5.3-5.2,9.4-5.2C181.1,62.4,186,68.3,186,77.5z M179.8,77.5c0-6-3.1-9.9-7.8-9.9c-4.6,0-7.7,4-7.7,9.9
			c0,5.9,3.1,9.9,7.7,9.9C176.8,87.4,179.8,83.5,179.8,77.5z"/>
		<path class="st1" d="M218.4,77.5c0,9.1-4.9,15-12.3,15c-4.2,0-7.5-1.9-9.3-5.1h-0.1v14.6h-6V62.8h5.8v4.9h0.1
			c1.7-3.2,5.3-5.2,9.4-5.2C213.5,62.4,218.4,68.3,218.4,77.5z M212.2,77.5c0-6-3.1-9.9-7.8-9.9c-4.6,0-7.7,4-7.7,9.9
			c0,5.9,3.1,9.9,7.7,9.9C209.1,87.4,212.2,83.5,212.2,77.5z"/>
		<path class="st1" d="M239.8,80.9c0.4,4,4.3,6.6,9.6,6.6c5.1,0,8.7-2.6,8.7-6.2c0-3.1-2.2-5-7.4-6.3l-5.2-1.3
			c-7.4-1.8-10.8-5.3-10.8-10.9c0-7,6.1-11.7,14.7-11.7c8.5,0,14.4,4.8,14.6,11.7h-6.1c-0.4-4-3.7-6.5-8.6-6.5c-4.9,0-8.2,2.5-8.2,6
			c0,2.9,2.1,4.5,7.3,5.8l4.4,1.1c8.3,2,11.7,5.3,11.7,11.2c0,7.5-6,12.3-15.6,12.3c-8.9,0-15-4.6-15.4-11.9H239.8z"/>
		<path class="st1" d="M277.6,55.8v7h5.6v4.8h-5.6v16.2c0,2.5,1.1,3.7,3.6,3.7c0.6,0,1.6-0.1,2-0.1v4.8c-0.7,0.2-2,0.3-3.4,0.3
			c-6,0-8.3-2.2-8.3-7.9V67.5h-4.3v-4.8h4.3v-7H277.6z"/>
		<path class="st1" d="M286.4,77.5c0-9.3,5.5-15.1,13.9-15.1c8.5,0,14,5.8,14,15.1c0,9.3-5.4,15.1-14,15.1
			C291.8,92.5,286.4,86.7,286.4,77.5z M308.2,77.5c0-6.3-2.9-10.1-7.8-10.1s-7.8,3.8-7.8,10.1c0,6.4,2.9,10.1,7.8,10.1
			S308.2,83.8,308.2,77.5z"/>
		<path class="st1" d="M319.3,62.8h5.8v5h0.1c0.9-3.3,3.6-5.3,7.1-5.3c0.9,0,1.6,0.1,2.1,0.2v5.6c-0.5-0.2-1.5-0.4-2.7-0.4
			c-3.9,0-6.3,2.6-6.3,6.8v17.4h-6V62.8z"/>
		<path class="st1" d="M362.2,83.5c-0.8,5.3-6,9-12.7,9c-8.6,0-13.9-5.7-13.9-14.9c0-9.2,5.3-15.2,13.6-15.2
			c8.1,0,13.3,5.6,13.3,14.5V79h-20.8v0.4c0,5,3.2,8.3,7.9,8.3c3.4,0,6-1.6,6.8-4.1H362.2z M341.8,74.7h14.7c-0.1-4.5-3-7.5-7.2-7.5
			C345.1,67.3,342.1,70.3,341.8,74.7z"/>
	</g>
</g>
<g id="XMLID_2_">
	<g>
		<path class="st1" d="M129.7,21.5c5.7,0,9.1,3.5,9.1,9.6c0,6.2-3.3,9.8-9.1,9.8h-7V21.5H129.7z M125.7,38.1h3.7
			c4.1,0,6.4-2.5,6.4-7c0-4.4-2.4-6.9-6.4-6.9h-3.7V38.1z"/>
		<path class="st1" d="M142.3,33.5c0-4.7,2.6-7.6,6.9-7.6c4.3,0,6.9,2.9,6.9,7.6c0,4.7-2.6,7.6-6.9,7.6
			C144.9,41.1,142.3,38.3,142.3,33.5z M153.1,33.5c0-3.2-1.4-5-3.9-5c-2.5,0-3.9,1.9-3.9,5c0,3.2,1.4,5,3.9,5
			C151.7,38.6,153.1,36.7,153.1,33.5z"/>
		<path class="st1" d="M174.4,40.8h-3l-3-10.8h-0.2l-3,10.8h-3l-4-14.6h2.9l2.6,11.2h0.2l3-11.2h2.8l3,11.2h0.2l2.6-11.2h2.9
			L174.4,40.8z"/>
		<path class="st1" d="M181.8,26.2h2.8v2.3h0.2c0.7-1.6,2.2-2.6,4.4-2.6c3.3,0,5.1,2,5.1,5.4v9.5h-2.9v-8.7c0-2.4-1-3.5-3.2-3.5
			s-3.5,1.4-3.5,3.7v8.6h-2.9V26.2z"/>
		<path class="st1" d="M198.8,20.5h2.9v20.3h-2.9V20.5z"/>
		<path class="st1" d="M205.7,33.5c0-4.7,2.6-7.6,6.9-7.6c4.3,0,6.9,2.9,6.9,7.6c0,4.7-2.6,7.6-6.9,7.6
			C208.3,41.1,205.7,38.3,205.7,33.5z M216.6,33.5c0-3.2-1.4-5-3.9-5c-2.5,0-3.9,1.9-3.9,5c0,3.2,1.4,5,3.9,5
			C215.1,38.6,216.6,36.7,216.6,33.5z"/>
		<path class="st1" d="M222.6,36.7c0-2.6,2-4.2,5.4-4.4l4-0.2v-1.3c0-1.5-1-2.4-3-2.4c-1.6,0-2.7,0.6-3,1.6h-2.8
			c0.3-2.5,2.7-4.1,6-4.1c3.7,0,5.7,1.8,5.7,4.9v10h-2.8v-2.1h-0.2c-0.9,1.5-2.5,2.3-4.4,2.3C224.6,41.1,222.6,39.4,222.6,36.7z
			 M232,35.5v-1.2l-3.6,0.2c-2,0.1-2.9,0.8-2.9,2.1c0,1.3,1.1,2.1,2.7,2.1C230.4,38.7,232,37.3,232,35.5z"/>
		<path class="st1" d="M238.6,33.5c0-4.6,2.4-7.6,6.1-7.6c2,0,3.7,1,4.5,2.6h0.2v-8h2.9v20.3h-2.8v-2.3h-0.2
			c-0.9,1.6-2.6,2.6-4.6,2.6C241,41.1,238.6,38.2,238.6,33.5z M241.6,33.5c0,3.1,1.5,5,3.9,5c2.4,0,3.9-1.9,3.9-5c0-3-1.5-5-3.9-5
			C243.1,28.6,241.6,30.4,241.6,33.5z"/>
		<path class="st1" d="M264.2,33.5c0-4.7,2.6-7.6,6.9-7.6c4.3,0,6.9,2.9,6.9,7.6c0,4.7-2.6,7.6-6.9,7.6
			C266.9,41.1,264.2,38.3,264.2,33.5z M275.1,33.5c0-3.2-1.4-5-3.9-5c-2.5,0-3.9,1.9-3.9,5c0,3.2,1.4,5,3.9,5
			C273.6,38.6,275.1,36.7,275.1,33.5z"/>
		<path class="st1" d="M281.9,26.2h2.8v2.3h0.2c0.7-1.6,2.2-2.6,4.4-2.6c3.3,0,5.1,2,5.1,5.4v9.5h-2.9v-8.7c0-2.4-1-3.5-3.2-3.5
			c-2.1,0-3.5,1.4-3.5,3.7v8.6h-2.9V26.2z"/>
		<path class="st1" d="M310.6,22.6v3.7h3.2v2.4h-3.2v7.5c0,1.5,0.6,2.2,2.1,2.2c0.4,0,0.7,0,1.1-0.1v2.4c-0.5,0.1-1,0.1-1.6,0.1
			c-3.2,0-4.5-1.1-4.5-3.9v-8.3h-2.3v-2.4h2.3v-3.7H310.6z"/>
		<path class="st1" d="M317.8,20.5h2.9v8.1h0.2c0.7-1.6,2.3-2.6,4.5-2.6c3.1,0,5,2,5,5.5v9.4h-2.9v-8.7c0-2.3-1.1-3.5-3.1-3.5
			c-2.4,0-3.7,1.5-3.7,3.7v8.5h-2.9V20.5z"/>
		<path class="st1" d="M347.2,36.9c-0.7,2.6-3,4.2-6.3,4.2c-4.2,0-6.8-2.9-6.8-7.6c0-4.7,2.6-7.6,6.7-7.6c4.1,0,6.5,2.8,6.5,7.4v1
			H337v0.2c0.1,2.6,1.6,4.2,3.9,4.2c1.7,0,2.9-0.6,3.5-1.8H347.2z M337,32.2h7.4c-0.1-2.3-1.5-3.8-3.6-3.8
			C338.7,28.4,337.2,29.9,337,32.2z"/>
	</g>
</g>
</svg>
