<?xml version="1.0" encoding="utf-8"?>
<!-- Generator: Adobe Illustrator 24.2.3, SVG Export Plug-In . SVG Version: 6.00 Build 0)  -->
<svg version="1.1" id="Layer_1" xmlns="http://www.w3.org/2000/svg" xmlns:xlink="http://www.w3.org/1999/xlink" x="0px" y="0px"
	 viewBox="0 0 459.9 333.8" style="enable-background:new 0 0 459.9 333.8;" xml:space="preserve">
<style type="text/css">
	.st0{opacity:0.475;fill:#E0E0E0;enable-background:new    ;}
	.st1{fill:#FFFFFF;}
	.st2{fill:#E0E0E0;}
	.st3{fill:#C0C0BF;}
	.st4{fill:#ED6840;}
	.st5{enable-background:new    ;}
	.st6{fill:#959595;}
	.st7{fill:#025C83;}
</style>
<rect id="Rectangle_3039" x="6.5" y="43.9" class="st0" width="447" height="281"/>
<rect id="Rectangle_2971" x="38.9" y="7.9" class="st1" width="371.8" height="282.2"/>
<g id="Group_2840" transform="translate(32.374)">
	<rect id="Rectangle_2972" x="192.4" y="7.9" class="st2" width="185.9" height="282.2"/>
	<rect id="Rectangle_2973" x="6.5" y="7.9" class="st2" width="371.8" height="36.3"/>
</g>
<rect id="Rectangle_2974" x="224.8" y="7.9" class="st3" width="185.9" height="36.3"/>
<g id="Group_2841" transform="translate(44.705 8.086)">
	<circle id="Ellipse_88" class="st4" cx="16.6" cy="18" r="10.1"/>
	<circle id="Ellipse_89" class="st4" cx="46.8" cy="18" r="10.1"/>
	<circle id="Ellipse_90" class="st4" cx="77" cy="18" r="10.1"/>
</g>
<path id="Rectangle_3040" class="st3" d="M249.5,141.9h137c5,0,9,4,9,9v28c0,5-4,9-9,9h-137c-5,0-9-4-9-9v-28
	C240.5,146,244.6,141.9,249.5,141.9z"/>
<path id="Rectangle_3042" class="st1" d="M249.5,77.9h137c5,0,9,4,9,9v28c0,5-4,9-9,9h-137c-5,0-9-4-9-9v-28
	C240.5,82,244.6,77.9,249.5,77.9z"/>
<path id="Rectangle_3041" class="st3" d="M249.5,207.9h137c5,0,9,4,9,9v28c0,5-4,9-9,9h-137c-5,0-9-4-9-9v-28
	C240.5,212,244.6,207.9,249.5,207.9z"/>
<g class="st5">
	<path class="st6" d="M285.8,109.9V93.6h3.6v12.8h7v3.5H285.8z"/>
	<path class="st6" d="M306,93.3c4.6,0,8.5,3.3,8.5,8.5c0,5.2-3.9,8.5-8.5,8.5c-4.6,0-8.5-3.3-8.5-8.5
		C297.5,96.6,301.4,93.3,306,93.3z M306,106.7c2.3,0,4.7-1.5,4.7-4.9s-2.4-4.9-4.7-4.9c-2.3,0-4.7,1.5-4.7,4.9
		S303.7,106.7,306,106.7z"/>
	<path class="st6" d="M329.2,109.9l-0.2-1.7c-0.7,1-2.3,2-4.6,2c-4.5,0-8.3-3.3-8.3-8.5c0-5.1,3.9-8.5,8.5-8.5c4.7,0,6.8,2.8,7.5,5
		l-3.5,1.2c-0.3-1-1.3-2.9-4-2.9c-2.2,0-4.8,1.5-4.8,5.1c0,3.4,2.3,5.2,4.9,5.2c2.7,0,3.8-1.7,4-2.7h-4.9v-3.1h8.3v8.7H329.2z"/>
	<path class="st6" d="M342.7,93.3c4.6,0,8.5,3.3,8.5,8.5c0,5.2-3.9,8.5-8.5,8.5c-4.6,0-8.5-3.3-8.5-8.5
		C334.2,96.6,338.1,93.3,342.7,93.3z M342.7,106.7c2.3,0,4.7-1.5,4.7-4.9s-2.4-4.9-4.7-4.9c-2.3,0-4.7,1.5-4.7,4.9
		S340.4,106.7,342.7,106.7z"/>
</g>
<path id="ic_exit_to_app_24px" class="st7" d="M113.1,151.3l-6.4,6.4l22.8,22.8l22.8-22.8l-6.4-6.4L134,163v-44.1h-9.1V163
	L113.1,151.3z M170.5,191.9V128c0-5-4.1-9.1-9.1-9.1c0,0,0,0,0,0h-18.2v9.1h18.2v63.9H97.5V128h18.2v-9.1H97.5c-5,0-9.1,4.1-9.1,9.1
	c0,0,0,0,0,0v63.9c0,5,4.1,9.1,9.1,9.1h63.9C166.4,201,170.5,196.9,170.5,191.9z"/>
</svg>
