<?xml version="1.0" encoding="utf-8"?>
<!-- Generator: Adobe Illustrator 24.3.0, SVG Export Plug-In . SVG Version: 6.00 Build 0)  -->
<svg version="1.1" id="Layer_1" xmlns="http://www.w3.org/2000/svg" xmlns:xlink="http://www.w3.org/1999/xlink" x="0px" y="0px"
	 viewBox="0 0 487.9 185.7" style="enable-background:new 0 0 487.9 185.7;" xml:space="preserve">
<style type="text/css">
	.st0{fill:#FFFFFF;}
	.st1{fill:none;}
</style>
<g>
	<path class="st0" d="M105.2,140.5c-1.9,0-3.4,1.5-3.4,3.4c0,5.8-4.7,10.5-10.5,10.5s-10.5-4.7-10.5-10.5c0-1.9-1.5-3.4-3.4-3.4
		S74,142,74,143.9c0,9.5,7.7,17.3,17.3,17.3c9.5,0,17.3-7.7,17.3-17.3C108.6,142,107,140.5,105.2,140.5z"/>
	<path class="st0" d="M180.7,81.4c0-5.7-2.2-10.8-5.8-14.7c1.7-3.1,2.7-6.6,2.7-10.3c0-11.2-8.6-20.4-19.6-21.3
		c-0.9-11-10.1-19.6-21.3-19.6c-0.9,0-1.8,0.1-2.6,0.2c-1.2-3-3-5.8-5.3-8c-3.2-3.1-7.6-5.3-12.6-5.3c-12.6,0-22.8,10.2-22.8,22.8
		v34c0,1.1-0.9,2.1-2.1,2.1c-1.1,0-2.1-0.9-2.1-2.1v-34C89.2,12.6,79,2.4,66.5,2.4c-4.9,0-9.3,2.1-12.6,5.3c-2.3,2.2-4.1,5-5.3,8
		c-0.9-0.1-1.7-0.2-2.6-0.2c-11.2,0-20.4,8.6-21.3,19.6C13.7,36,5.1,45.2,5.1,56.4c0,3.7,1,7.3,2.7,10.3C4.2,70.5,2,75.7,2,81.4
		c0,10.2,7.1,18.7,16.7,20.8c-2.5,4.4-3.9,9.8-3.9,16c0,16.8,11.3,29.2,27.1,30.5c1.6,12,10.2,21.3,25.1,27.2
		c11.9,4.7,23.6,5.6,24.1,5.6h0.3h0.3c0.5,0,12.2-0.9,24.1-5.6c14.9-5.9,23.4-15.3,25.1-27.2c15.9-1.3,27.1-13.7,27.1-30.5
		c0-6.2-1.3-11.6-3.9-16C173.5,100.1,180.7,91.6,180.7,81.4z M20.6,118.3c0-14.7,8.4-23,24.2-24c8.5-0.6,20.6-1.4,28.8,0.9
		c8,2.3,8,6.5,8,8.2c0,13.2-16,39.6-37,39.6C28.1,143,20.6,130.2,20.6,118.3z M112.8,168.4c-9.8,3.9-19.7,5-21.5,5.1
		c-3.5-0.3-37.5-3.9-41.3-25.2c18.1-3.1,31.6-21.6,36.2-36.3c0.7-2.4,0.8-4.1,5.2-4.1c4.4,0,4.4,1.6,5.2,4.1
		c4.5,14.7,18.1,33.2,36.2,36.3C131.1,157,124.5,163.8,112.8,168.4z M137.9,143c-21,0-37-26.4-37-39.6c0-1.7,0-5.9,8.1-8.2
		c8.2-2.3,20.3-1.5,28.8-0.9c15.8,1,24.2,9.3,24.2,24C162,130.2,154.4,143,137.9,143z M159.3,95.1h-1.5c-2.7-2.1-5.9-3.8-9.6-4.9
		c-3.4-8.2-11.5-15.1-21-15.1c-2.1,0-3.8,1.7-3.8,3.8c0,2.1,1.7,3.8,3.8,3.8l0,0c4.2,0,8,2.8,10.7,5.6c-6.1-0.4-26.4-0.6-46.6-0.6
		c-20.3,0-40.5,0.2-46.6,0.6c2.7-2.8,6.5-5.6,10.7-5.6c2.1,0,3.8-1.7,3.8-3.8c0-2.1-1.7-3.8-3.8-3.8c-9.5,0-17.6,6.8-21,15.1
		c-3.7,1.2-6.9,2.8-9.6,4.9h-1.5c-7.5,0-13.7-6.1-13.7-13.7c0-4.1,1.8-7.7,4.6-10.2h23.3C50,71.2,60.2,61,60.2,48.5
		c0-2.1-1.7-3.8-3.8-3.8s-3.8,1.7-3.8,3.8c0,8.3-6.8,15.1-15.1,15.1H14.8c-1.3-2.1-2-4.5-2-7.1c0-7.5,6.1-13.7,13.7-13.7
		c0.5,0,1.1,0,1.7,0.1c0.3,0,0.6,0,0.9,0l4.5,4.5c0.7,0.7,1.7,1.1,2.7,1.1s2-0.4,2.7-1.1c1.5-1.5,1.5-3.9,0-5.4l-6.6-6.6
		c0.8-6.8,6.5-12.2,13.6-12.2c1.4,0,2.8,0.2,4.1,0.6c1,0.3,2.2,0.2,3.1-0.4c1-0.4,1.6-1.4,1.8-2.4c0.6-2.9,2.1-5.8,4.2-7.7
		c2.1-2,4.6-3.1,7.3-3.1c8.3,0,15.1,6.8,15.1,15.1v14v7.8v-0.6v8.4v4.4c0,0.1,0,0.3,0,0.4c0.2,5.2,4.5,9.3,9.7,9.3s9.5-4.1,9.7-9.3
		c0-0.1,0-0.3,0-0.4V45.9v7.9V33.2v-7.7v-0.3c0-8.3,6.8-15.1,15.1-15.1c2.7,0,5.2,1.1,7.3,3.1c2.1,2,3.6,4.8,4.2,7.7
		c0.2,1.1,0.9,2,1.8,2.6c0.9,0.6,2.1,0.7,3.1,0.4c1.3-0.4,2.7-0.6,4.1-0.6c7,0,12.8,5.3,13.6,12.2l-6.7,6.7c-1.5,1.5-1.5,3.9,0,5.4
		c0.7,0.7,1.7,1.1,2.7,1.1s2-0.4,2.7-1.1l4.7-4.7c0.3,0,0.6,0,0.9,0c0.6-0.1,1.2-0.1,1.7-0.1c7.5,0,13.7,6.1,13.7,13.7
		c0,2.6-0.7,5.1-2,7.1h-22.6c-8.3,0-15.1-6.8-15.1-15.1c0-2.1-1.7-3.8-3.8-3.8c-2.1,0-3.8,1.7-3.8,3.8c0,12.6,10.2,22.8,22.8,22.8
		h23.3c2.8,2.5,4.6,6.1,4.6,10.2C173,89,166.9,95.1,159.3,95.1z"/>
</g>
<g>
	<path class="st1" d="M159.3,95.1h-1.5c-2.7-2.1-5.9-3.8-9.6-4.9c-3.4-8.2-11.5-15.1-21-15.1c-2.1,0-3.8,1.7-3.8,3.8
		c0,2.1,1.7,3.8,3.8,3.8l0,0c4.2,0,8,2.8,10.7,5.6c-6.1-0.4-26.4-0.6-46.6-0.6c-20.3,0-40.5,0.2-46.6,0.6c2.7-2.8,6.5-5.6,10.7-5.6
		c2.1,0,3.8-1.7,3.8-3.8c0-2.1-1.7-3.8-3.8-3.8c-9.5,0-17.6,6.8-21,15.1c-3.7,1.2-6.9,2.8-9.6,4.9h-1.5c-7.5,0-13.7-6.1-13.7-13.7
		c0-4.1,1.8-7.7,4.6-10.2h23.3C50,71.2,60.2,61,60.2,48.5c0-2.1-1.7-3.8-3.8-3.8s-3.8,1.7-3.8,3.8c0,8.3-6.8,15.1-15.1,15.1H14.8
		c-1.3-2.1-2-4.5-2-7.1c0-7.5,6.1-13.7,13.7-13.7c0.5,0,1.1,0,1.7,0.1c0.3,0,0.6,0,0.9,0l4.5,4.5c0.7,0.7,1.7,1.1,2.7,1.1
		s2-0.4,2.7-1.1c1.5-1.5,1.5-3.9,0-5.4l-6.6-6.6c0.8-6.8,6.5-12.2,13.6-12.2c1.4,0,2.8,0.2,4.1,0.6c1,0.3,2.2,0.2,3.1-0.4
		c1-0.4,1.6-1.4,1.8-2.4c0.6-2.9,2.1-5.8,4.2-7.7c2.1-2,4.6-3.1,7.3-3.1c8.3,0,15.1,6.8,15.1,15.1v14v7.8v-0.6v8.4v4.4
		c0,0.1,0,0.3,0,0.4c0.2,5.2,4.5,9.3,9.7,9.3s9.5-4.1,9.7-9.3c0-0.1,0-0.3,0-0.4V45.9v7.9V33.2v-7.7v-0.3c0-8.3,6.8-15.1,15.1-15.1
		c2.7,0,5.2,1.1,7.3,3.1c2.1,2,3.6,4.8,4.2,7.7c0.2,1.1,0.9,2,1.8,2.6c0.9,0.6,2.1,0.7,3.1,0.4c1.3-0.4,2.7-0.6,4.1-0.6
		c7,0,12.8,5.3,13.6,12.2l-6.7,6.7c-1.5,1.5-1.5,3.9,0,5.4c0.7,0.7,1.7,1.1,2.7,1.1s2-0.4,2.7-1.1l4.7-4.7c0.3,0,0.6,0,0.9,0
		c0.6-0.1,1.2-0.1,1.7-0.1c7.5,0,13.7,6.1,13.7,13.7c0,2.6-0.7,5.1-2,7.1h-22.6c-8.3,0-15.1-6.8-15.1-15.1c0-2.1-1.7-3.8-3.8-3.8
		c-2.1,0-3.8,1.7-3.8,3.8c0,12.6,10.2,22.8,22.8,22.8h23.3c2.8,2.5,4.6,6.1,4.6,10.2C173,89,166.9,95.1,159.3,95.1z"/>
</g>
<g>
	<path class="st0" d="M260.5,124.4h-5.6c-1.5,0-2.4-0.6-2.9-1.5l-28.1-53.3c-0.1-0.2-0.2-0.2-0.2-0.2c-0.1,0-0.1,0.1-0.1,0.2v53
		c0,0.9-0.7,1.7-1.6,1.7h-4.7c-0.9,0-1.6-0.2-1.6-1.1V59.5c0-1.5,1.2-2.5,2.6-2.5h5c2.5,0,3,0.5,3.7,1.8l27.9,53l0.2,0.2
		c0.1,0,0.1-0.2,0.1-0.2V58.7c0-0.9,0.7-1.7,1.6-1.7h4.8c1,0,1.6,0.8,1.6,1.7v63.2C263.1,123.3,261.9,124.4,260.5,124.4z"/>
	<path class="st0" d="M313.2,102.1h-30.4v1.3c0,10.8,4.3,14.8,12.7,14.8c5.3,0,12-0.3,16.1-1c0.2,0,0.2,0,0.5,0
		c0.7,0,1.5,0.3,1.5,1.3v3.1c0,1.2-0.3,1.8-1.8,2.1c-5.2,1-10.1,1.5-16.2,1.5c-10.5,0-20.6-4.9-20.6-21.8v-8.4
		c0-13,7.1-21.2,20.2-21.2c13.3,0,20,8.4,20,21.2v4.9C314.9,101.2,314.2,102.1,313.2,102.1z M306.8,95.1c0-10.3-3.9-14.3-11.9-14.3
		c-7.8,0-12.2,4.5-12.2,14.3v0.8h24.1V95.1z"/>
	<path class="st0" d="M362.4,124.4h-6.2c-0.6,0-0.9-0.2-1.3-0.7l-13-19l-13,18.8c-0.6,0.8-0.7,0.9-1.5,0.9h-5.4
		c-0.7,0-1.1-0.3-1.1-0.9c0-0.2,0.1-0.7,0.5-1.2L337.8,99l-15.4-22.2c-0.2-0.5-0.5-0.8-0.5-1.2c0-0.6,0.6-1.1,1.4-1.1h5.9
		c0.7,0,1.2,0.2,1.8,1.3l11.5,17.1l11.6-17.1c0.8-1.2,1.1-1.3,1.9-1.3h5.3c0.7,0,1.2,0.5,1.2,1.1c0,0.3-0.2,0.7-0.5,1.2l-15.2,21.7
		l16.6,23.9c0.2,0.3,0.3,0.7,0.3,1.1C363.5,124,363.3,124.4,362.4,124.4z"/>
	<path class="st0" d="M369,140.8c-2,0-4.3-0.5-4.8-0.7c-0.3-0.2-0.6-0.6-0.6-1v-3.3c0-1,0.8-1.5,1.8-1.5h3.6c4.8,0,5.8-1.9,5.8-6.3
		V58.7c0-0.9,0.8-1.7,1.7-1.7h4.8c0.9,0,1.7,0.8,1.7,1.7v69.1C383.1,136.5,379,140.8,369,140.8z"/>
	<path class="st0" d="M414.9,125.1c-13.4,0-20.2-8.8-20.2-22.1v-6.9c0-13.4,6.8-22.1,20.2-22.1s20.3,8.8,20.3,22.1v6.9
		C435.2,116.3,428.3,125.1,414.9,125.1z M427.1,96.1c0-9.2-3.7-15.2-12.2-15.2c-8.4,0-12.2,5.8-12.2,15.2v6.9
		c0,9.2,3.6,15.2,12.2,15.2c8.4,0,12.2-5.8,12.2-15.2V96.1z"/>
	<path class="st0" d="M464.5,125.1c-5.4,0-11.1-0.5-16.7-1.5c-1.6-0.2-1.9-0.8-1.9-2.1V57.9c0-0.9,0.6-1.7,1.6-1.7h4.6
		c0.9,0,1.7,0.7,1.7,1.7v17c3.5-0.6,7.7-0.9,10.6-0.9c13.1,0,19.8,8,19.8,22.2v6.6C484.3,116.3,478.1,125.1,464.5,125.1z
		 M476.3,96.1c0-9.7-2.9-15.2-11.8-15.2c-2.8,0-7.6,0.1-10.6,0.6v36.1c3.1,0.2,7.5,0.6,10.6,0.6c9,0,11.8-5.5,11.8-15.4V96.1z"/>
</g>
</svg>
