<?xml version="1.0" encoding="utf-8"?>
<!-- Generator: Adobe Illustrator 24.3.0, SVG Export Plug-In . SVG Version: 6.00 Build 0)  -->
<svg version="1.1" id="Layer_1" xmlns="http://www.w3.org/2000/svg" xmlns:xlink="http://www.w3.org/1999/xlink" x="0px" y="0px"
	 viewBox="0 0 132.8 140.1" style="enable-background:new 0 0 132.8 140.1;" xml:space="preserve">
<style type="text/css">
	.st0{fill:#FFFFFF;}
	.st1{fill:#40A9E0;}
	.st2{fill:#173651;}
</style>
<polygon class="st0" points="55.7,81.4 51.3,96.6 55.9,117.5 68.1,130.1 84.1,137.6 96,137.1 113.2,131.6 126.6,114.9 129,96.2 
	125.7,76.4 113.9,55 107.2,54.6 102.6,58.3 101.5,59.6 94.3,57.9 90.1,60.3 88.3,63.6 82.4,62.9 77.5,64.9 76,67.1 72,65.1 
	61.7,40.5 55.9,32.6 46.7,33.7 44.3,42.2 "/>
<path class="st1" d="M55.1,114.2H15.9c-6.2,0-11.3-5.1-11.3-11.3V15.7c0-6.2,5.1-11.3,11.3-11.3h39.2c6.2,0,11.3,5.1,11.3,11.3v32.8
	l-6.7-13.4l-7.3-2l-7.3,3.1l2,15.5l9.6,29.6l-3.5,7.6l-1,13.5l3.3,8.4l0.7,3.1h-0.8l0,0"/>
<path class="st0" d="M32.9,108h3.5c1.3,0,2.3-1,2.3-2.3s-1-2.3-2.3-2.3h-3.5c-1.3,0-2.3,1-2.3,2.3C30.7,107,31.7,108,32.9,108
	L32.9,108z"/>
<path class="st0" d="M32.6,13.4c0.4,0.9,1.3,1.5,2.3,1.4c0.9-0.1,1.8-0.7,2-1.6c0.3-0.9-0.1-1.9-0.8-2.5c-0.8-0.5-1.8-0.6-2.5-0.1
	C32.6,11.2,32.2,12.4,32.6,13.4L32.6,13.4z"/>
<g>
	<g>
		<path class="st0" d="M32.5,60.1c-0.7,0-1.4-0.3-2-0.9c-1-1.1-0.9-2.8,0.2-3.7l4.7-4.3c1.1-1,2.8-0.9,3.7,0.2
			c1,1.1,0.9,2.8-0.2,3.7l-4.7,4.3C33.8,59.9,33.2,60.1,32.5,60.1z"/>
	</g>
	<g>
		<path class="st0" d="M36.3,40c-0.5,0-1.1-0.2-1.5-0.5l-5.2-3.6c-1.2-0.8-1.5-2.5-0.6-3.7c0.8-1.2,2.5-1.5,3.7-0.6l5.2,3.7
			c1.2,0.8,1.5,2.5,0.6,3.7C37.9,39.6,37.1,40,36.3,40z"/>
	</g>
	<g>
		<path class="st0" d="M28.5,48.4c-1.4,0-2.6-1.1-2.6-2.5c-0.1-1.5,1-2.7,2.5-2.8l8.2-0.5c1.5-0.1,2.7,1,2.8,2.5
			c0.1,1.5-1,2.7-2.5,2.8l-8.2,0.5C28.6,48.4,28.6,48.4,28.5,48.4z"/>
	</g>
	<g>
		<g>
			<path class="st2" d="M56.8,116.8H12.2c-6.4,0-11.6-5.2-11.6-11.6v-93c0-6.4,5.2-11.6,11.6-11.6h45.3c6.4,0,11.6,5.2,11.6,11.6V53
				c0,1.5-1.2,0.5-2.6,0.5c-1.5,0-2.6-6.9-2.6-8.4V12.2c0-3.5-2.8-6.3-6.3-6.3H12.2c-3.5,0-6.3,2.8-6.3,6.3v93
				c0,3.5,2.8,6.3,6.3,6.3h41.6c1.5,0,1.7,1.2,1.7,2.6C55.5,115.6,58.3,116.8,56.8,116.8z"/>
		</g>
	</g>
</g>
<polygon class="st2" points="54,94.8 4.1,94.8 4.1,99.4 53.3,99.4 "/>
<path class="st2" d="M35.2,86.8c0.2,0.1,0.4,0.2,0.6,0.2s0.4-0.1,0.6-0.2c0.3-0.3,8.4-6.3,8.4-12.8c0-5-4-9-9-9s-9,4-9,9
	C26.8,80.4,34.9,86.5,35.2,86.8z M35.8,71c1.7,0,3,1.3,3,3c0,1.6-1.3,3-3,3s-3-1.4-3-3C32.8,72.3,34.1,71,35.8,71z"/>
<circle class="st0" cx="35.8" cy="74" r="3"/>
<path class="st2" d="M2.5,27.5h51c1.3,0,2.3-1,2.3-2.3s-1-2.3-2.3-2.3H4.6"/>
<path class="st2" d="M112.6,57.4c-0.2-0.2-0.4-0.3-0.6-0.4c-1-0.6-2.1-0.7-3.4-0.4c-4.1,1-4.5,5-4.5,5.1c-0.1,0.9-0.7,1.7-1.6,2
	c-0.9,0.3-1.8,0-2.4-0.7c-2-2.2-4.3-3-6.4-2.2c-2,0.8-3.4,2.8-3.4,4.6c0,0.8-0.4,1.6-1.2,2.1s-1.6,0.4-2.4,0
	c-2.6-1.6-4.8-2.1-6.5-1.5c-2.5,1-3.5,4.3-3.5,4.3c-0.3,0.9-1.1,1.6-2.1,1.7s-1.9-0.5-2.3-1.4c-0.3-0.7-8.1-18.1-9.9-23.1
	c-0.2-0.5-0.4-1-0.6-1.6c-2.2-6.3-4.5-11.5-10-10.2c-2,0.5-3.3,1.3-4,2.5c-1.6,2.7-0.3,7.6,0.8,11.5c1.8,6.8,13.4,42.6,18.9,57
	c0.4,1.2-0.2,2.5-1.3,3c0-0.1-0.2,0-0.5,0c-0.9,0-1.8-0.6-2.2-1.5c-5.5-14.5-17.2-50.6-19-57.4c-1.3-4.8-2.9-10.7-0.3-15.1
	c1.4-2.3,3.7-3.8,6.9-4.6c10-2.4,13.5,7.7,15.4,13.2c0.2,0.5,0.4,1,0.5,1.5c1.2,3.3,5.4,13,7.9,18.6c0.9-1.1,2.2-2.2,3.8-2.8
	c2.3-0.9,5-0.8,7.8,0.4c1-2.4,3-4.5,5.6-5.5c2.9-1.1,5.9-0.8,8.6,0.9c1.1-2.3,3.2-3.9,6.9-4.8c2.4-0.6,4.7-0.3,6.7,0.8
	c0.5,0.3,1,0.6,1.4,1.1l0.1,0.1c16.8,21,16.3,43,16.3,43.9c0,22.7-18.5,41.2-41.3,41.2s-41.3-18.5-41.3-41.3
	c0-6.7,1.7-13.4,4.8-19.3l3.7,2c-2.8,5.3-4.3,11.3-4.3,17.3c0,20.4,16.6,37.1,37.1,37.1c20.4,0,37.1-16.6,37.1-37.1
	c0-0.3,0.4-21.3-15.1-40.9L112.6,57.4z"/>
</svg>
