<?xml version="1.0" encoding="utf-8"?>
<!-- Generator: Adobe Illustrator 24.3.0, SVG Export Plug-In . SVG Version: 6.00 Build 0)  -->
<svg version="1.1" id="Layer_1" xmlns="http://www.w3.org/2000/svg" xmlns:xlink="http://www.w3.org/1999/xlink" x="0px" y="0px"
	 viewBox="0 0 134.3 118.4" style="enable-background:new 0 0 134.3 118.4;" xml:space="preserve">
<style type="text/css">
	.st0{fill:#FFFFFF;}
	.st1{fill:#29ACF0;}
	.st2{fill:#173651;}
</style>
<polygon class="st0" points="2.8,33.8 3.1,11.6 11.4,4 76.1,4.4 84.4,8.7 85,12.3 85.3,34.4 "/>
<polygon class="st1" points="3.1,38.4 2.4,106.8 7.4,112.7 12.4,115 78.7,114.7 86,108.7 85.3,105.4 85.3,34.4 2.8,33.8 "/>
<path class="st2" d="M75.5,117.9H14.3c-7.5,0-13.6-6.1-13.6-13.6V14.6C0.7,7.1,6.8,1,14.3,1h61.2C83,1,89.1,7.1,89.1,14.6v89.6
	C89.1,111.8,83,117.9,75.5,117.9z M14.3,6.3C9.7,6.3,6,10,6,14.6v89.6c0,4.6,3.7,8.3,8.3,8.3h61.2c4.6,0,8.3-3.7,8.3-8.3V14.6
	c0-4.6-3.7-8.3-8.3-8.3C75.5,6.3,14.3,6.3,14.3,6.3z"/>
<polygon class="st0" points="46.4,73.4 67.5,58.5 116.7,58.2 127.3,64.1 129.9,74.1 127.3,83.3 120,89.2 102.2,89.9 67.8,89.2 "/>
<rect x="4.1" y="31.4" class="st2" width="83.6" height="5.3"/>
<circle class="st2" cx="17.6" cy="19.2" r="5.6"/>
<circle class="st2" cx="31.5" cy="19.2" r="5.6"/>
<circle class="st1" cx="45.4" cy="19.2" r="5.6"/>
<path class="st2" d="M115.1,92.3H67.5c-0.6,0-1.1-0.2-1.6-0.5L44,75.9c-0.7-0.5-1.1-1.4-1.1-2.3s0.5-1.7,1.2-2.2L66,56.2
	c0.5-0.3,1-0.5,1.6-0.5h47.6c10.1,0,18.3,8.2,18.3,18.3S125.1,92.3,115.1,92.3z M68.4,86.8h46.7c7,0,12.8-5.7,12.8-12.8
	s-5.7-12.8-12.8-12.8H68.4l-18,12.5L68.4,86.8z"/>
<rect x="65.7" y="59.2" class="st2" width="5.5" height="29.4"/>
<polygon class="st2" points="57.6,67.8 57.6,80 46.4,73.4 "/>
</svg>
