<?xml version="1.0" encoding="utf-8"?>
<!-- Generator: Adobe Illustrator 24.2.1, SVG Export Plug-In . SVG Version: 6.00 Build 0)  -->
<svg version="1.1" id="Capa_1" xmlns="http://www.w3.org/2000/svg" xmlns:xlink="http://www.w3.org/1999/xlink" x="0px" y="0px"
	 viewBox="0 0 512 512" style="enable-background:new 0 0 512 512;" xml:space="preserve">
<style type="text/css">
	.st0{fill:#29ACF0;}
	.st1{fill:#FFFFFF;}
	.st2{fill:#163550;}
</style>
<g>
	<g>
		<g>
			<g>
				<g>
					<g>
						<path class="st0" d="M391.6,303.7V52.8c0-23.6-19.2-42.8-42.8-42.8H150c-23.6,0-42.8,19.2-42.8,42.8v57.3v103.1v210.1h284.4"
							/>
					</g>
					<path class="st0" d="M107.2,423.4v35.8c0,23.6,19.2,42.8,42.8,42.8h198.7c23.6,0,42.8-19.2,42.8-42.8v-35.8H107.2z"/>
				</g>
				<path class="st0" d="M161.1,10h176.8"/>
			</g>
		</g>
		<path class="st1" d="M430.2,284.1c-17.4,0-28.4,10.4-34.6,19.1c-1.6,2.3-3,4.5-4.1,6.7c-1.1-2.1-2.5-4.4-4.1-6.7
			c-6.2-8.7-17.2-19.1-34.6-19.1c-12.4,0-23.7,5.1-31.8,14.3c-7.8,8.8-12,20.6-12,33.2c0,13.7,5.4,26.5,16.9,40.2
			c10.3,12.2,64.5,51.6,65.6,51.6s55.4-39.4,65.6-51.6c11.5-13.7,16.9-26.5,16.9-40.2c0-12.6-4.3-24.4-12-33.2
			C453.9,289.2,442.6,284.1,430.2,284.1L430.2,284.1z"/>
		<path class="st1" d="M139.7,94.1c-14.6,0-23.8,8.7-29,16c-1.3,1.9-2.5,3.8-3.4,5.6c-1-1.8-2.1-3.7-3.4-5.6c-5.2-7.3-14.4-16-29-16
			c-10.4,0-19.9,4.3-26.7,12c-6.5,7.4-10.1,17.3-10.1,27.9c0,11.5,4.5,22.2,14.2,33.7c8.6,10.3,54.1,43.3,55.1,43.3
			s46.5-33,55.1-43.3c9.7-11.5,14.2-22.2,14.2-33.7c0-10.6-3.6-20.5-10.1-27.9C159.5,98.3,150,94.1,139.7,94.1z"/>
	</g>
	<g>
		<g>
			<path class="st1" d="M241.7,472.7H257c5.5,0,10-4.5,10-10s-4.5-10-10-10h-15.3c-5.5,0-10,4.5-10,10S236.2,472.7,241.7,472.7
				L241.7,472.7z"/>
			<path class="st1" d="M240.3,56.6c1.6,3.9,5.7,6.4,9.9,6.2c4.1-0.3,7.7-3.1,8.9-7.1s-0.3-8.5-3.7-11c-3.3-2.4-7.7-2.6-11.2-0.4
				C240.2,46.9,238.5,52.2,240.3,56.6L240.3,56.6z"/>
			<path class="st1" d="M324.6,191.8h-152c-5.5,0-10,4.5-10,10s4.5,10,10,10h152c5.5,0,10-4.5,10-10S330.1,191.8,324.6,191.8z"/>
			<path class="st1" d="M324.6,236.5h-152c-5.5,0-10,4.5-10,10s4.5,10,10,10h152c5.5,0,10-4.5,10-10S330.1,236.5,324.6,236.5z"/>
			<path class="st2" d="M469.5,291.8c-10.1-11.4-24-17.7-39.3-17.7c-10.4,0-20.2,3.2-28.7,9.1V52.8c0-29.1-23.7-52.8-52.8-52.8H150
				c-29.1,0-52.8,23.7-52.8,52.8v37.5C90.4,86.2,82.8,84,74.7,84c-13.3,0-25.4,5.5-34.2,15.4c-8.1,9.2-12.6,21.5-12.6,34.5
				c0,14,5.2,26.8,16.5,40.2c4.2,5,15,14.1,32,27c10.1,7.7,16.5,12.4,20.7,15.3v242.7c0,29.1,23.7,52.8,52.8,52.8h198.7
				c29.1,0,52.8-23.7,52.8-52.8v-30.3c1.4-1,3.1-2.2,5.1-3.7c6.1-4.4,13.5-9.9,20.3-15c20.2-15.3,33-26.1,37.9-31.9
				c13.1-15.6,19.2-30.4,19.2-46.6C484.1,316.6,478.9,302.4,469.5,291.8L469.5,291.8z M347.7,20h1c18.1,0,32.8,14.7,32.8,32.8v230.4
				c-8.5-6-18.2-9.1-28.7-9.1c-15.3,0-29.2,6.3-39.3,17.7c-9.4,10.6-14.5,24.8-14.5,39.8c0,4.1,0.4,8.2,1.2,12.1H172.6
				c-5.5,0-10,4.5-10,10s4.5,10,10,10H308c2.8,4.8,6.2,9.6,10.3,14.5c4.9,5.8,17.6,16.6,37.9,31.9c1.4,1.1,2.9,2.2,4.3,3.2H117.2
				v-197c4.2-2.9,10.6-7.6,20.7-15.3c17.1-12.9,27.8-22,32-27c2-2.4,3.8-4.7,5.4-7h149.3c5.5,0,10-4.5,10-10s-4.5-10-10-10H184.8
				c1.1-4.3,1.6-8.7,1.6-13.2c0-13-4.5-25.3-12.6-34.5c-8.8-9.9-20.9-15.4-34.2-15.4c-8.1,0-15.7,2.2-22.5,6.3V52.8
				C117.2,34.7,131.9,20,150,20l0,0h1h20h156.8H347.7z M59.8,161.3C51.6,151.6,48,143.2,48,134c0-8.2,2.7-15.7,7.6-21.3
				c4.9-5.6,11.7-8.6,19.2-8.6c8.3,0,15.3,4,20.9,11.8c1,1.4,1.9,2.9,2.8,4.5c1.7,3.2,5.1,5.3,8.8,5.3s7.1-2,8.8-5.3
				c0.9-1.6,1.8-3.1,2.8-4.5c5.6-7.8,12.6-11.8,20.9-11.8c7.5,0,14.3,3.1,19.2,8.6c4.9,5.6,7.6,13.1,7.6,21.3
				c0,9.2-3.6,17.6-11.8,27.3c-6,7.1-35.5,29.2-47.4,37.7C95.2,190.4,65.7,168.4,59.8,161.3z M381.6,459.2
				c0,18.1-14.7,32.8-32.8,32.8H150c-18.1,0-32.8-14.7-32.8-32.8v-25.8h264.4L381.6,459.2L381.6,459.2z M449.5,365.4
				c-7.6,9-44.4,36.5-58,46.1c-13.6-9.6-50.4-37-58-46.1c-9.9-11.8-14.5-22.5-14.5-33.8c0-10.2,3.4-19.6,9.5-26.6
				c6.2-7.1,14.8-10.9,24.3-10.9c10.5,0,19.4,5,26.4,14.9c1.2,1.7,2.4,3.6,3.5,5.6c1.7,3.2,5.1,5.3,8.8,5.3l0,0c3.7,0,7.1-2,8.8-5.3
				c1.1-2,2.2-3.9,3.5-5.6c7-9.9,15.9-14.9,26.4-14.9c9.5,0,18.1,3.9,24.3,10.9c6.2,7,9.5,16.4,9.5,26.6
				C464.1,342.9,459.5,353.6,449.5,365.4L449.5,365.4z"/>
		</g>
	</g>
</g>
</svg>
