<svg width="0" height="0" style="position:absolute"><symbol viewBox="0 0 19.939 18.809" id="icon-fav" xmlns="http://www.w3.org/2000/svg"><defs><style>.aa{fill:none;stroke:#4d4d4d;stroke-width:2px}</style></defs><path class="aa" d="M9.969 17.459l-1.3-1.184C4.05 12.086 1 9.324 1 5.933A4.885 4.885 0 015.933 1a5.371 5.371 0 014.036 1.875A5.371 5.371 0 0114.006 1a4.885 4.885 0 014.933 4.933c0 3.39-3.05 6.153-7.669 10.351z"/></symbol><symbol viewBox="0 0 18.435 18.434" id="icon-filter" xmlns="http://www.w3.org/2000/svg"><defs><style>.ba{fill:#414141}</style></defs><path class="ba" d="M0 .001l7.169 8.193v8.193l4.1 2.048V8.193L18.435.001H0z"/></symbol><symbol viewBox="0 0 21.63 21.956" id="icon-list" xmlns="http://www.w3.org/2000/svg"><defs><style>.ca{fill:#414141}</style></defs><path class="ca" d="M9.289 0H.341C.157 0 0 .219 0 .476v5c0 .257.157.476.341.476h8.948c.177 0 .35-.219.341-.476v-5C9.631.219 9.474 0 9.289 0zM9.289 8H.341C.157 8 0 8.219 0 8.476v5c0 .257.157.476.341.476h8.948c.177 0 .35-.219.341-.476v-5C9.631 8.219 9.474 8 9.289 8zM9.289 16H.341c-.184 0-.341.219-.341.476v5c0 .257.157.476.341.476h8.948c.177 0 .35-.219.341-.476v-5c.001-.257-.156-.476-.341-.476zM21.288 0H12.34c-.184 0-.341.219-.341.476v5c0 .257.157.476.341.476h8.948c.177 0 .35-.219.341-.476v-5C21.63.219 21.473 0 21.288 0zM21.288 8H12.34c-.184 0-.341.219-.341.476v5c0 .257.157.476.341.476h8.948c.177 0 .35-.219.341-.476v-5c.001-.257-.156-.476-.341-.476zM21.288 16H12.34c-.184 0-.341.219-.341.476v5c0 .257.157.476.341.476h8.948c.177 0 .35-.219.341-.476v-5c.001-.257-.156-.476-.341-.476z"/></symbol><symbol viewBox="0 0 25.447 25.447" id="icon-map" xmlns="http://www.w3.org/2000/svg"><defs><style>.da{fill:#414141}.db{fill:#fff}</style></defs><rect class="da" width="25.447" height="25.447" rx="1.628"/><path class="db" d="M12.714 5.624a5.061 5.061 0 00-5.145 5.091 7.526 7.526 0 00.411 2.246l4.743 6.863 4.743-6.863a7.48 7.48 0 00.411-2.246 5.076 5.076 0 00-5.163-5.091zm.009 2.291a2.864 2.864 0 11-2.863 2.862 2.864 2.864 0 012.863-2.862z"/></symbol><symbol viewBox="0 0 31.389 31.389" id="icon-target" xmlns="http://www.w3.org/2000/svg"><defs><style>.ea{fill:#414141}</style></defs><path class="ea" d="M18.626 12.213a4.2 4.2 0 00-1.438-.825 4.427 4.427 0 00-1.322-.253 4.544 4.544 0 00-4.292 2.576 4.2 4.2 0 00-.444 1.641 4.515 4.515 0 001.581 3.806 5.012 5.012 0 001.55.878 4.371 4.371 0 001.432.228 4.5 4.5 0 002.585-.816 5.5 5.5 0 00.594-.484 5.174 5.174 0 00.544-.65 4.426 4.426 0 00.606-1.2 4.549 4.549 0 00-1.396-4.901zm-4.009 2.081a3.265 3.265 0 01.388-.224 3.139 3.139 0 01.434-.119 3.415 3.415 0 01.486 0 1.764 1.764 0 01.833.352 3.226 3.226 0 01.325.325 3.323 3.323 0 01.231.4 1.757 1.757 0 010 1.354 3.181 3.181 0 01-.219.378 3.444 3.444 0 01-.345.345 3.267 3.267 0 01-.38.222 3.414 3.414 0 01-.417.117c-.085.006-.171.01-.256.012s-.162 0-.243-.009a1.762 1.762 0 01-.842-.35 3.48 3.48 0 01-.329-.329 3.265 3.265 0 01-.224-.388 3.142 3.142 0 01-.119-.435 3.339 3.339 0 010-.472 1.764 1.764 0 01.351-.845 3.48 3.48 0 01.325-.334z"/><path class="ea" d="M31.389 15.695a1.411 1.411 0 00-.413-.994 1.458 1.458 0 00-.994-.413h-1.913q-.067-.586-.184-1.166a12.434 12.434 0 00-10.127-9.714q-.329-.045-.656-.081V1.408A1.409 1.409 0 0015.695.001a1.411 1.411 0 00-.994.413 1.457 1.457 0 00-.413.994v1.914A12.3 12.3 0 008.559 5.49a13.938 13.938 0 00-1.541 1.266 13.245 13.245 0 00-1.307 1.5 12.317 12.317 0 00-1.747 3.251 11.873 11.873 0 00-.648 2.779H1.408a1.409 1.409 0 00-1.407 1.407 1.411 1.411 0 00.413.994 1.457 1.457 0 00.994.413h1.913a12.366 12.366 0 004.369 8.13 13.489 13.489 0 001.625 1.163 13.3 13.3 0 001.815.876 11.828 11.828 0 003.16.789v1.924a1.409 1.409 0 001.407 1.407 1.411 1.411 0 00.994-.413 1.458 1.458 0 00.413-.994v-1.916a12.431 12.431 0 009.886-7.13 13.4 13.4 0 00.71-1.9 13 13 0 00.365-1.932h1.92a1.409 1.409 0 001.407-1.407zm-8.036 5.879a11.325 11.325 0 01-1.779 1.779 11.208 11.208 0 01-2.135 1.244 11.15 11.15 0 01-2.454.67 11.347 11.347 0 01-1.187.073.977.977 0 00-.1 0h-.034a11.35 11.35 0 01-1.254-.073 11.025 11.025 0 01-2.439-.664 11.209 11.209 0 01-2.149-1.25 11.325 11.325 0 01-1.779-1.779 11.208 11.208 0 01-1.244-2.135 11.151 11.151 0 01-.669-2.454 11.348 11.348 0 010-2.578 11.025 11.025 0 01.664-2.439 11.209 11.209 0 011.25-2.149 11.328 11.328 0 011.78-1.78 11.207 11.207 0 012.135-1.244 11.149 11.149 0 012.465-.671 11.133 11.133 0 011.208-.072h.069a11.515 11.515 0 011.3.076 11.025 11.025 0 012.428.662 11.208 11.208 0 012.149 1.25 11.325 11.325 0 011.779 1.779 11.207 11.207 0 011.244 2.135 11.15 11.15 0 01.67 2.454 11.355 11.355 0 01.073 1.184.978.978 0 000 .1v.034a11.344 11.344 0 01-.073 1.256 11.025 11.025 0 01-.664 2.439 11.208 11.208 0 01-1.254 2.153z"/></symbol></svg>